<svg xmlns="http://www.w3.org/2000/svg" width="34.797" height="43.039" viewBox="0 0 34.797 43.039">
  <g id="Group_1336" data-name="Group 1336" transform="translate(-489.626 -240.98)">
    <g id="Group_1202" data-name="Group 1202" transform="translate(-154.398 -363.02)">
      <g id="Group_1185" data-name="Group 1185" transform="translate(644.024 604)">
        <path id="Path_1050" data-name="Path 1050" d="M266.864,1856.282H233.9a.915.915,0,0,1-.916-.916v-24.724a.916.916,0,1,1,1.831,0v23.809h31.134v-39.376H233.9a.916.916,0,1,1,0-1.831h32.966a.915.915,0,0,1,.916.916v41.207A.915.915,0,0,1,266.864,1856.282Z" transform="translate(-232.982 -1813.243)" fill="#1a1818"/>
      </g>
      <g id="Group_1186" data-name="Group 1186" transform="translate(655.339 615.869)">
        <path id="Path_1051" data-name="Path 1051" d="M251.078,1841.412a.916.916,0,0,1-.916-.916v-.169c0-1.735,0-3.235,1.917-4.386a8.258,8.258,0,0,1,.787-.454c1.481-.791,2.809-1.632,2.809-3.2a4.253,4.253,0,1,0-8.505,0,.916.916,0,1,1-1.831,0,6.084,6.084,0,1,1,12.168,0c0,2.792-2.457,4.106-3.777,4.811-.2.109-.427.229-.558.312l-.037.028-.092.064a.952.952,0,0,1-.158.091c-.856.555-.894,1.083-.892,2.73v.17A.916.916,0,0,1,251.078,1841.412Z" transform="translate(-245.338 -1826.205)" fill="#1a1818"/>
      </g>
      <g id="Group_1187" data-name="Group 1187" transform="translate(660.102 634.499)">
        <path id="Path_1052" data-name="Path 1052" d="M251.456,1848.381a.9.9,0,0,1-.348-.065,1.067,1.067,0,0,1-.3-.2,1.056,1.056,0,0,1-.192-.3.767.767,0,0,1-.073-.348.922.922,0,0,1,.266-.641.764.764,0,0,1,.3-.2.855.855,0,0,1,.522-.056.577.577,0,0,1,.174.056.491.491,0,0,1,.156.082.932.932,0,0,1,.147.119.922.922,0,0,1,.266.641.911.911,0,0,1-.073.348,1.056,1.056,0,0,1-.192.3,1.068,1.068,0,0,1-.3.2A.9.9,0,0,1,251.456,1848.381Z" transform="translate(-250.54 -1846.549)" fill="#1a1818"/>
      </g>
    </g>
  </g>
</svg>
