<svg xmlns="http://www.w3.org/2000/svg" width="50.035" height="37.098" viewBox="0 0 50.035 37.098">
  <g id="Group_1333" data-name="Group 1333" transform="translate(-838.844 -243.125)">
    <g id="Group_1203" data-name="Group 1203" transform="translate(50.121 -370.203)">
      <g id="Group_1182" data-name="Group 1182" transform="translate(788.723 613.328)">
        <path id="Path_1047" data-name="Path 1047" d="M399.561,1859.669H378.99a1.309,1.309,0,0,1,0-2.618h19.263v-31.862H380.3v16.9a1.309,1.309,0,0,1-2.618,0V1823.88a1.309,1.309,0,0,1,1.309-1.309h20.572a1.309,1.309,0,0,1,1.309,1.309v34.48A1.308,1.308,0,0,1,399.561,1859.669Z" transform="translate(-377.681 -1822.571)" fill="#1a1818"/>
      </g>
      <g id="Group_1183" data-name="Group 1183" transform="translate(823.817 622.85)">
        <path id="Path_1048" data-name="Path 1048" d="M405.8,1845.384a1.309,1.309,0,0,1-.925-2.234,7.835,7.835,0,0,0,0-11.069,1.308,1.308,0,1,1,1.851-1.85,10.456,10.456,0,0,1,0,14.77A1.3,1.3,0,0,1,405.8,1845.384Z" transform="translate(-404.495 -1829.847)" fill="#1a1818"/>
      </g>
      <g id="Group_1184" data-name="Group 1184" transform="translate(831.014 618.17)">
        <path id="Path_1049" data-name="Path 1049" d="M411.3,1853.684a1.309,1.309,0,0,1-.925-2.234,16.227,16.227,0,0,0,0-22.945,1.309,1.309,0,1,1,1.851-1.852,18.864,18.864,0,0,1,0,26.647A1.307,1.307,0,0,1,411.3,1853.684Z" transform="translate(-409.994 -1826.271)" fill="#1a1818"/>
      </g>
    </g>
  </g>
</svg>
