<svg xmlns="http://www.w3.org/2000/svg" width="43.846" height="42.648" viewBox="0 0 43.846 42.648">
  <g id="Group_1335" data-name="Group 1335" transform="translate(-489.57 -424.334)">
    <g id="Group_1204" data-name="Group 1204" transform="translate(-443.46 -181.42)">
      <g id="Group_1191" data-name="Group 1191" transform="translate(947.18 621.219)">
        <path id="Path_1056" data-name="Path 1056" d="M540.121,1842.259a1.07,1.07,0,0,1-1.071-1.071v-.132c0-1.425,0-2.771,1.679-3.788a6.868,6.868,0,0,1,.661-.38c1.087-.583,2.065-1.194,2.065-2.255a3.058,3.058,0,0,0-6.116,0,1.071,1.071,0,1,1-2.143,0,5.2,5.2,0,0,1,10.4,0c0,2.435-2.16,3.589-3.2,4.144-.155.082-.292.151-.391.214l-.052.039c-.028.019-.058.038-.087.055-.64.375-.677.581-.676,1.97v.134A1.07,1.07,0,0,1,540.121,1842.259Z" transform="translate(-535.195 -1829.432)" fill="#1a1818"/>
      </g>
      <g id="Group_1192" data-name="Group 1192" transform="translate(950.988 636.106)">
        <path id="Path_1057" data-name="Path 1057" d="M539.821,1845.473a1.065,1.065,0,0,1-.761-.322,1.108,1.108,0,0,1-.237-.342,1.074,1.074,0,0,1-.074-.407,1.176,1.176,0,0,1,.074-.419,1.1,1.1,0,0,1,.237-.342,1.091,1.091,0,0,1,1.168-.237c.063.033.129.065.182.1a.652.652,0,0,1,.161.139.931.931,0,0,1,.236.342,1.121,1.121,0,0,1,.086.419,1.024,1.024,0,0,1-.321.749A1.063,1.063,0,0,1,539.821,1845.473Z" transform="translate(-538.75 -1843.328)" fill="#1a1818"/>
      </g>
      <g id="Group_1193" data-name="Group 1193" transform="translate(969.805 623.507)">
        <path id="Path_1058" data-name="Path 1058" d="M556.313,1831.568" transform="translate(-556.313 -1831.568)" fill="none" stroke="#1a1818" stroke-linecap="round" stroke-linejoin="round" stroke-width="2"/>
      </g>
      <g id="Group_1194" data-name="Group 1194" transform="translate(933.03 609.702)">
        <path id="Path_1059" data-name="Path 1059" d="M541.339,1857.383a19.35,19.35,0,1,1,7.282-37.285,1.072,1.072,0,0,1-.808,1.985,17.21,17.21,0,1,0,10.083,20.655,1.071,1.071,0,1,1,2.061.584A19.424,19.424,0,0,1,541.339,1857.383Z" transform="translate(-521.988 -1818.682)" fill="#1a1818"/>
      </g>
      <g id="Group_1195" data-name="Group 1195" transform="translate(969.968 634.051)">
        <path id="Path_1060" data-name="Path 1060" d="M556.466,1841.409" transform="translate(-556.466 -1841.409)" fill="none" stroke="#1a1818" stroke-linecap="round" stroke-linejoin="round" stroke-width="2"/>
      </g>
      <g id="Group_1196" data-name="Group 1196" transform="translate(970.512 626.71)">
        <path id="Path_1061" data-name="Path 1061" d="M556.973,1834.557" transform="translate(-556.973 -1834.557)" fill="none" stroke="#1a1818" stroke-linecap="round" stroke-linejoin="round" stroke-width="2"/>
      </g>
      <g id="Group_1197" data-name="Group 1197" transform="translate(968.732 622.434)">
        <path id="Path_1062" data-name="Path 1062" d="M557.09,1835.913a1.075,1.075,0,0,1-1.063-.936,17.129,17.129,0,0,0-.665-3.013,1.072,1.072,0,1,1,2.043-.648,19.36,19.36,0,0,1,.749,3.39,1.072,1.072,0,0,1-.927,1.2A1.189,1.189,0,0,1,557.09,1835.913Z" transform="translate(-555.312 -1830.566)" fill="#1a1818"/>
      </g>
      <g id="Group_1198" data-name="Group 1198" transform="translate(963.187 605.755)">
        <path id="Path_1063" data-name="Path 1063" d="M553.474,1827.79h0a1.069,1.069,0,0,1-.808-.369l-2.267-2.612a1.071,1.071,0,1,1,1.618-1.4l1.459,1.681,8.47-9.723a1.071,1.071,0,0,1,1.616,1.408l-9.279,10.652A1.075,1.075,0,0,1,553.474,1827.79Z" transform="translate(-550.136 -1814.998)" fill="#1a1818"/>
      </g>
    </g>
  </g>
</svg>
