<svg xmlns="http://www.w3.org/2000/svg" width="45.837" height="35.52" viewBox="0 0 45.837 35.52">
  <g id="Group_1334" data-name="Group 1334" transform="translate(-840.991 -427.481)">
    <g id="Group_1205" data-name="Group 1205" transform="translate(-231.961 -185.667)">
      <g id="Group_1199" data-name="Group 1199" transform="translate(1072.952 613.148)">
        <path id="Path_1064" data-name="Path 1064" d="M702.525,1857.911H663a1.093,1.093,0,0,1-1.094-1.094v-29.2A1.093,1.093,0,0,1,663,1826.52h3.037v-3.036a1.093,1.093,0,0,1,1.094-1.094h39.519a1.093,1.093,0,0,1,1.094,1.094v14.6a1.094,1.094,0,0,1-2.187,0v-13.508H668.228v27.016h38.426a1.093,1.093,0,0,1,.773,1.867l-4.128,4.129A1.093,1.093,0,0,1,702.525,1857.911Zm-38.428-2.187h37.975l1.941-1.942H667.134a1.093,1.093,0,0,1-1.094-1.094v-23.981H664.1Z" transform="translate(-661.91 -1822.391)" fill="#1a1818"/>
      </g>
      <g id="Group_1200" data-name="Group 1200" transform="translate(1091.176 620.528)">
        <path id="Path_1065" data-name="Path 1065" d="M679.669,1845.77a1.093,1.093,0,0,1-1.094-1.094v-14.443a1.094,1.094,0,0,1,1.64-.948l12.508,7.222a1.094,1.094,0,0,1,0,1.894l-12.508,7.222A1.094,1.094,0,0,1,679.669,1845.77Zm1.094-13.642v10.654l9.227-5.327Z" transform="translate(-678.575 -1829.14)" fill="#1a1818"/>
      </g>
    </g>
  </g>
</svg>
