<svg xmlns="http://www.w3.org/2000/svg" width="47.762" height="40.016" viewBox="0 0 47.762 40.016">
  <g id="Group_1315" data-name="Group 1315" transform="translate(-838.103 -242.397)">
    <g id="Group_1045" data-name="Group 1045" transform="translate(-34.106 -373.603)">
      <g id="Group_1029" data-name="Group 1029" transform="translate(876.909 616)">
        <path id="Path_904" data-name="Path 904" d="M418.059,543.5a1.135,1.135,0,0,1-.44-.087,1.147,1.147,0,0,1-.709-1.062,18.116,18.116,0,0,0-34.888-6.842,1.149,1.149,0,1,1-2.128-.869,20.415,20.415,0,0,1,39.148,5.1l1.867-1.866a1.149,1.149,0,1,1,1.625,1.625l-3.662,3.661A1.149,1.149,0,0,1,418.059,543.5Z" transform="translate(-379.808 -521.943)" fill="#1a1818"/>
      </g>
      <g id="Group_1030" data-name="Group 1030" transform="translate(878.059 629.134)">
        <path id="Path_905" data-name="Path 905" d="M380.809,533.368" transform="translate(-380.809 -533.368)" fill="none" stroke="#1a1818" stroke-linecap="round" stroke-linejoin="round" stroke-width="2"/>
      </g>
      <g id="Group_1031" data-name="Group 1031" transform="translate(909.848 632.362)">
        <path id="Path_906" data-name="Path 906" d="M413.773,541.374a1.145,1.145,0,0,1-.656-.206l-4.161-2.9a1.149,1.149,0,1,1,1.314-1.886l4.161,2.9a1.149,1.149,0,0,1-.658,2.092Z" transform="translate(-408.462 -536.176)" fill="#1a1818"/>
      </g>
      <g id="Group_1032" data-name="Group 1032" transform="translate(872.21 634.454)">
        <path id="Path_907" data-name="Path 907" d="M399.794,559.558a20.443,20.443,0,0,1-20.245-17.8l-1.867,1.867A1.149,1.149,0,0,1,376.057,542l3.664-3.664a1.149,1.149,0,0,1,1.962.813,18.115,18.115,0,0,0,34.962,6.653,1.15,1.15,0,0,1,2.138.845A20.305,20.305,0,0,1,399.794,559.558Z" transform="translate(-375.72 -537.996)" fill="#1a1818"/>
      </g>
      <g id="Group_1033" data-name="Group 1033" transform="translate(914.203 642.681)">
        <path id="Path_908" data-name="Path 908" d="M412.251,545.153" transform="translate(-412.251 -545.153)" fill="none" stroke="#1a1818" stroke-linecap="round" stroke-linejoin="round" stroke-width="2"/>
      </g>
      <g id="Group_1034" data-name="Group 1034" transform="translate(875.872 634.455)">
        <path id="Path_909" data-name="Path 909" d="M384.139,543.363a1.146,1.146,0,0,1-.69-.23l-4.083-3.067a1.15,1.15,0,0,1,1.381-1.839l4.083,3.067a1.15,1.15,0,0,1-.691,2.069Z" transform="translate(-378.907 -537.997)" fill="#1a1818"/>
      </g>
      <g id="Group_1037" data-name="Group 1037" transform="translate(888.601 628.62)">
        <g id="Group_1035" data-name="Group 1035" transform="translate(0 6.219)">
          <path id="Path_910" data-name="Path 910" d="M403.567,540.63H391.129a1.15,1.15,0,0,1,0-2.3h12.438a1.15,1.15,0,0,1,0,2.3Z" transform="translate(-389.979 -538.331)" fill="#1a1818"/>
        </g>
        <g id="Group_1036" data-name="Group 1036" transform="translate(6.219 0)">
          <path id="Path_911" data-name="Path 911" d="M396.539,547.658a1.149,1.149,0,0,1-1.15-1.15V534.071a1.15,1.15,0,0,1,2.3,0v12.438A1.149,1.149,0,0,1,396.539,547.658Z" transform="translate(-395.389 -532.921)" fill="#1a1818"/>
        </g>
      </g>
    </g>
  </g>
</svg>
