<svg xmlns="http://www.w3.org/2000/svg" width="52.343" height="42.477" viewBox="0 0 52.343 42.477">
  <g id="Group_1314" data-name="Group 1314" transform="translate(-835.523 -424.265)">
    <g id="Group_1046" data-name="Group 1046" transform="translate(869.057 431.997)">
      <path id="Path_896" data-name="Path 896" d="M558.288,549.395a9.028,9.028,0,1,1,3.039-17.53,1.216,1.216,0,0,1-.815,2.291,6.6,6.6,0,1,0,4.372,6.212,1.216,1.216,0,0,1,2.432,0,8.959,8.959,0,0,1-2.639,6.379,9.014,9.014,0,0,1-6.39,2.648Z" transform="translate(-549.26 -531.338)" fill="#1a1818"/>
    </g>
    <g id="Group_1047" data-name="Group 1047" transform="translate(874.213 431.998)">
      <path id="Path_897" data-name="Path 897" d="M556.919,544.121h0a1.211,1.211,0,0,1-.917-.42l-2.2-2.538a1.216,1.216,0,0,1,1.836-1.594l1.286,1.482,8.1-9.3a1.216,1.216,0,1,1,1.832,1.6L557.836,543.7A1.212,1.212,0,0,1,556.919,544.121Z" transform="translate(-553.5 -531.339)" fill="#1a1818"/>
    </g>
    <g id="Group_1048" data-name="Group 1048" transform="translate(835.523 450.406)">
      <path id="Path_912" data-name="Path 912" d="M556.431,562.814H522.9a1.215,1.215,0,0,1-1.216-1.216,17.979,17.979,0,0,1,7.927-14.911,1.216,1.216,0,0,1,1.361,2.015,15.549,15.549,0,0,0-6.808,11.68h31.006a15.554,15.554,0,0,0-6.809-11.68,1.216,1.216,0,0,1,1.361-2.015,17.98,17.98,0,0,1,7.928,14.911A1.216,1.216,0,0,1,556.431,562.814Z" transform="translate(-521.682 -546.478)" fill="#1a1818"/>
    </g>
    <g id="Group_1049" data-name="Group 1049" transform="translate(843.101 424.265)">
      <path id="Path_913" data-name="Path 913" d="M538.319,545.791a10.406,10.406,0,1,1,10.4-10.407A10.418,10.418,0,0,1,538.319,545.791Zm0-18.38a7.974,7.974,0,1,0,7.973,7.973A7.981,7.981,0,0,0,538.319,527.411Z" transform="translate(-527.913 -524.979)" fill="#1a1818"/>
    </g>
  </g>
</svg>
