<svg xmlns="http://www.w3.org/2000/svg" width="48.437" height="37.938" viewBox="0 0 48.437 37.938">
  <g id="Group_1320" data-name="Group 1320" transform="translate(-837.692 -242.567)">
    <g id="Group_1078" data-name="Group 1078" transform="translate(-88.021 -425.8)">
      <g id="Group_1053" data-name="Group 1053" transform="translate(960.766 669.509)">
        <g id="Group_1051" data-name="Group 1051" transform="translate(0 5.648)">
          <path id="Path_919" data-name="Path 919" d="M420.8,746.787h-11.3a1.044,1.044,0,0,1,0-2.088h11.3a1.044,1.044,0,0,1,0,2.088Z" transform="translate(-408.462 -744.699)" fill="#1a1818"/>
        </g>
        <g id="Group_1052" data-name="Group 1052" transform="translate(5.649)">
          <path id="Path_920" data-name="Path 920" d="M414.917,752.673a1.043,1.043,0,0,1-1.044-1.044v-11.3a1.044,1.044,0,1,1,2.088,0v11.3A1.044,1.044,0,0,1,414.917,752.673Z" transform="translate(-413.873 -739.289)" fill="#1a1818"/>
        </g>
      </g>
      <g id="Group_1066" data-name="Group 1066" transform="translate(935.004 705.261)">
        <path id="Path_933" data-name="Path 933" d="M383.786,773.534" transform="translate(-383.786 -773.534)" fill="none" stroke="#1a1818" stroke-linecap="round" stroke-linejoin="round" stroke-width="2"/>
      </g>
      <g id="Group_1067" data-name="Group 1067" transform="translate(952.839 705.261)">
        <path id="Path_934" data-name="Path 934" d="M400.87,773.534" transform="translate(-400.87 -773.534)" fill="none" stroke="#1a1818" stroke-linecap="round" stroke-linejoin="round" stroke-width="2"/>
      </g>
      <g id="Group_1068" data-name="Group 1068" transform="translate(940.322 668.367)">
        <path id="Path_935" data-name="Path 935" d="M416.755,776.133H400.409a1.044,1.044,0,0,1,0-2.088h14.538l-18.912-32.756-5.206,9.018a1.044,1.044,0,1,1-1.808-1.044l6.111-10.584a1.086,1.086,0,0,1,1.808,0l20.72,35.888a1.044,1.044,0,0,1-.9,1.566Z" transform="translate(-388.88 -738.195)" fill="#1a1818"/>
      </g>
      <g id="Group_1069" data-name="Group 1069" transform="translate(935.135 678.912)">
        <path id="Path_936" data-name="Path 936" d="M384.955,759.367a1.043,1.043,0,0,1-.9-1.566l5.187-8.982a1.044,1.044,0,0,1,1.808,1.044l-5.187,8.982A1.04,1.04,0,0,1,384.955,759.367Z" transform="translate(-383.912 -748.296)" fill="#1a1818"/>
      </g>
      <g id="Group_1070" data-name="Group 1070" transform="translate(925.713 687.894)">
        <path id="Path_937" data-name="Path 937" d="M392.457,775.31H375.93a1.044,1.044,0,0,1-.9-1.566l9.423-16.322a1.044,1.044,0,1,1,1.808,1.044l-8.519,14.756h14.718a1.044,1.044,0,0,1,0,2.088Z" transform="translate(-374.887 -756.9)" fill="#1a1818"/>
      </g>
      <g id="Group_1071" data-name="Group 1071" transform="translate(946.429 698.469)">
        <path id="Path_938" data-name="Path 938" d="M395.774,769.118a1.039,1.039,0,0,1-.4-.084.915.915,0,0,1-.334-.231,1.033,1.033,0,0,1-.313-.73,1.131,1.131,0,0,1,.083-.407.925.925,0,0,1,.23-.335,1.033,1.033,0,0,1,.94-.281,1.392,1.392,0,0,1,.2.052c.063.031.115.063.177.093a2.015,2.015,0,0,1,.157.136,1.076,1.076,0,0,1,.23.335,1.115,1.115,0,0,1,.073.407,1.023,1.023,0,0,1-.3.73A1.04,1.04,0,0,1,395.774,769.118Z" transform="translate(-394.73 -767.029)" fill="#1a1818"/>
      </g>
      <g id="Group_1072" data-name="Group 1072" transform="translate(946.432 681.382)">
        <path id="Path_939" data-name="Path 939" d="M395.777,766.164a1.044,1.044,0,0,1-1.044-1.044V751.706a1.044,1.044,0,0,1,2.088,0V765.12A1.044,1.044,0,0,1,395.777,766.164Z" transform="translate(-394.733 -750.662)" fill="#1a1818"/>
      </g>
    </g>
  </g>
</svg>
