<svg xmlns="http://www.w3.org/2000/svg" width="36.373" height="41.772" viewBox="0 0 36.373 41.772">
  <g id="Group_1316" data-name="Group 1316" transform="translate(-485.504 -240.641)">
    <g id="Group_1044" data-name="Group 1044" transform="translate(-248.7 -377.267)">
      <g id="Group_1040" data-name="Group 1040" transform="translate(734.204 617.907)">
        <path id="Path_914" data-name="Path 914" d="M272.82,537.074H238.982a1.267,1.267,0,0,1-1.267-1.267V525.117a1.267,1.267,0,0,1,1.267-1.267H272.82a1.267,1.267,0,0,1,1.267,1.267v10.689A1.267,1.267,0,0,1,272.82,537.074Zm-32.571-2.535h31.3v-8.155h-31.3Z" transform="translate(-237.715 -523.85)" fill="#1a1818"/>
      </g>
      <g id="Group_1041" data-name="Group 1041" transform="translate(740.43 634.47)">
        <path id="Path_915" data-name="Path 915" d="M271.507,547.856H243.9a1.267,1.267,0,0,1-1.267-1.267v-8.4a1.267,1.267,0,0,1,1.267-1.267h27.612a1.267,1.267,0,0,1,1.267,1.267v8.4A1.267,1.267,0,0,1,271.507,547.856Zm-26.345-2.534H270.24v-5.867H245.163Z" transform="translate(-242.628 -536.92)" fill="#1a1818"/>
      </g>
      <g id="Group_1042" data-name="Group 1042" transform="translate(740.43 648.746)">
        <path id="Path_916" data-name="Path 916" d="M271.507,559.119H243.9a1.267,1.267,0,0,1-1.267-1.267v-8.4a1.267,1.267,0,0,1,1.267-1.267h27.612a1.267,1.267,0,0,1,1.267,1.267v8.4A1.267,1.267,0,0,1,271.507,559.119Zm-26.345-2.534H270.24v-5.865H245.163Z" transform="translate(-242.628 -548.185)" fill="#1a1818"/>
      </g>
      <g id="Group_1043" data-name="Group 1043" transform="translate(740.43 623.113)">
        <path id="Path_917" data-name="Path 917" d="M265.281,530.492H243.9a1.267,1.267,0,0,1,0-2.534h21.386a1.267,1.267,0,0,1,0,2.534Z" transform="translate(-242.628 -527.958)" fill="#1a1818"/>
      </g>
    </g>
  </g>
</svg>
