<svg xmlns="http://www.w3.org/2000/svg" xmlns:xlink="http://www.w3.org/1999/xlink" width="18.192" height="18.182" viewBox="0 0 18.192 18.182">
  <defs>
    <clipPath id="clip-path">
      <rect id="Rectangle_494" data-name="Rectangle 494" width="18.192" height="18.182" fill="#3774b5"/>
    </clipPath>
  </defs>
  <g id="Group_1321" data-name="Group 1321" transform="translate(-1395.924 -213.811)">
    <g id="Group_520" data-name="Group 520" transform="translate(1395.924 213.811)">
      <g id="Group_519" data-name="Group 519" clip-path="url(#clip-path)">
        <path id="Path_607" data-name="Path 607" d="M18.181,9.918c0-2.357-.03-4.714.011-7.07A2.991,2.991,0,0,0,15.334,0Q9.095.052,2.855,0A3,3,0,0,0,0,2.852q.058,4.429,0,8.858a2.99,2.99,0,0,0,2.861,2.848c3.386-.033,6.772-.009,10.157-.015a.542.542,0,0,1,.424.18q1.575,1.587,3.161,3.163a.9.9,0,0,0,1.537-.35,1.43,1.43,0,0,0,.038-.4q0-3.609,0-7.219m-1.81,5.1-.1.071a.813.813,0,0,0-.109-.206c-.584-.591-1.179-1.17-1.756-1.767a1.227,1.227,0,0,0-.946-.393q-5.334.01-10.668,0c-.72,0-.97-.254-.974-.976,0-.035,0-.071,0-.106q0-4.376,0-8.751c0-.842.231-1.072,1.078-1.072H15.292c.078,0,.156,0,.234,0a.765.765,0,0,1,.841.834c0,.064,0,.128,0,.192q0,5.983,0,11.967Z" transform="translate(0 0.001)" fill="#3774b5"/>
      </g>
    </g>
    <g id="Rectangle_495" data-name="Rectangle 495" transform="translate(1400 218)" fill="none" stroke="#3774b5" stroke-width="1">
      <rect width="10" height="2" stroke="none"/>
      <rect x="0.5" y="0.5" width="9" height="1" fill="none"/>
    </g>
    <g id="Rectangle_497" data-name="Rectangle 497" transform="translate(1400 222)" fill="none" stroke="#3774b5" stroke-width="1">
      <rect width="10" height="2" stroke="none"/>
      <rect x="0.5" y="0.5" width="9" height="1" fill="none"/>
    </g>
  </g>
</svg>
