<svg xmlns="http://www.w3.org/2000/svg" width="47" height="47" viewBox="0 0 47 47">
  <g id="Group_1317" data-name="Group 1317" transform="translate(6236 4648)">
    <rect id="Rectangle_2275" data-name="Rectangle 2275" width="47" height="47" transform="translate(-6236 -4648)" fill="rgba(255,255,255,0)"/>
    <g id="Group_914" data-name="Group 914" transform="translate(-6972.756 -5620.278)">
      <g id="Group_889" data-name="Group 889" transform="translate(747.044 980)">
        <path id="Path_761" data-name="Path 761" d="M26.542,121.051H2.372a.672.672,0,0,1-.671-.671V102.252a.671.671,0,1,1,1.343,0v17.456H25.871V90.839H2.372a.671.671,0,1,1,0-1.343h24.17a.672.672,0,0,1,.671.671V120.38A.672.672,0,0,1,26.542,121.051Z" transform="translate(-1.701 -89.496)" fill="#1a1818"/>
      </g>
      <g id="Group_890" data-name="Group 890" transform="translate(753.087 992.085)">
        <path id="Path_762" data-name="Path 762" d="M23.457,108.839H11.372a.671.671,0,0,1,0-1.343H23.457a.671.671,0,0,1,0,1.343Z" transform="translate(-10.701 -107.496)" fill="#1a1818"/>
      </g>
      <g id="Group_891" data-name="Group 891" transform="translate(753.102 986.043)">
        <path id="Path_763" data-name="Path 763" d="M23.479,99.839H11.394a.671.671,0,1,1,0-1.343H23.479a.671.671,0,1,1,0,1.343Z" transform="translate(-10.723 -98.496)" fill="#1a1818"/>
      </g>
      <g id="Group_892" data-name="Group 892" transform="translate(753.087 998.128)">
        <path id="Path_764" data-name="Path 764" d="M23.457,117.839H11.372a.671.671,0,0,1,0-1.343H23.457a.671.671,0,0,1,0,1.343Z" transform="translate(-10.701 -116.496)" fill="#1a1818"/>
      </g>
      <g id="Group_893" data-name="Group 893" transform="translate(753.087 1004.17)">
        <path id="Path_765" data-name="Path 765" d="M23.457,126.839H11.372a.671.671,0,0,1,0-1.343H23.457a.671.671,0,0,1,0,1.343Z" transform="translate(-10.701 -125.496)" fill="#1a1818"/>
      </g>
    </g>
  </g>
</svg>
