<svg xmlns="http://www.w3.org/2000/svg" width="47" height="47" viewBox="0 0 47 47">
  <g id="Group_1316" data-name="Group 1316" transform="translate(6168 4648)">
    <rect id="Rectangle_2276" data-name="Rectangle 2276" width="47" height="47" transform="translate(-6168 -4648)" fill="rgba(255,255,255,0)"/>
    <g id="Group_937" data-name="Group 937" transform="translate(-7046.888 -5619.924)">
      <g id="Group_894" data-name="Group 894" transform="translate(900.792 980.318)">
        <path id="Path_766" data-name="Path 766" d="M162.307,90.142" transform="translate(-162.307 -90.142)" fill="none" stroke="#1a1818" stroke-linecap="round" stroke-linejoin="round" stroke-width="2"/>
      </g>
      <g id="Group_895" data-name="Group 895" transform="translate(886.78 979.646)">
        <path id="Path_767" data-name="Path 767" d="M155.45,117.166a14.028,14.028,0,0,1-14.013-14.012.671.671,0,0,1,1.343,0,12.669,12.669,0,1,0,12.67-12.669.671.671,0,0,1,0-1.343,14.012,14.012,0,0,1,0,28.024Z" transform="translate(-141.437 -89.142)" fill="#1a1818"/>
      </g>
      <g id="Group_896" data-name="Group 896" transform="translate(909.93 1003.136)">
        <path id="Path_768" data-name="Path 768" d="M183.311,132.195a.67.67,0,0,1-.475-.2l-6.723-6.723a.671.671,0,0,1,.949-.949l6.723,6.723a.671.671,0,0,1-.475,1.146Z" transform="translate(-175.917 -124.13)" fill="#1a1818"/>
      </g>
      <g id="Group_898" data-name="Group 898" transform="translate(896.799 986.257)">
        <g id="Group_897" data-name="Group 897" transform="translate(0 0)">
          <path id="Path_769" data-name="Path 769" d="M163.3,100.154a.588.588,0,0,1-.779.341,4.7,4.7,0,0,0-1.835-.354c-1.172,0-2.066.577-2.066,1.471,0,1.033.994,1.411,2.483,1.907,1.828.6,3.239,1.351,3.239,3.139a2.935,2.935,0,0,1-1.292,2.4,2.365,2.365,0,0,1,.755,1.748c0,2.086-1.927,2.98-3.775,2.98a6.014,6.014,0,0,1-2.649-.548.591.591,0,0,1-.273-.757l.018-.043a.594.594,0,0,1,.816-.294,4.77,4.77,0,0,0,2.067.49c1.272,0,2.226-.577,2.226-1.629,0-.935-.576-1.431-2.424-2.067-2.046-.7-3.457-1.431-3.457-3.139a2.807,2.807,0,0,1,1.451-2.324,2.345,2.345,0,0,1-.735-1.67c0-1.748,1.629-2.821,3.676-2.821a6,6,0,0,1,2.228.411.592.592,0,0,1,.326.755Zm-3.429,7.319a12.216,12.216,0,0,1,2.265.953,1.837,1.837,0,0,0,.755-1.53c0-.755-.477-1.39-1.768-1.848a17.288,17.288,0,0,1-2.444-1.013,1.849,1.849,0,0,0-.914,1.55C157.77,106.3,158.307,106.9,159.876,107.472Z" transform="translate(-156.359 -98.988)" fill="#1a1818"/>
        </g>
      </g>
    </g>
  </g>
</svg>
