<svg xmlns="http://www.w3.org/2000/svg" width="542.1" height="129.1" viewBox="0 0 542 129">
  <g fill="#FFF">
    <path d="M167.7 14.7c13.6 0 20.8 5.5 20.8 16 0 5.8-3.2 9.9-8.8 12.1 7 2.3 11.2 6.9 11.2 14.3 0 11.6-7.6 17.3-23 17.3h-24V14.7H167.7zM155.2 38.8h10.9c6.7 0 10.4-2.6 10.4-7.4.3-5.1-2.3-7.4-8.7-7.4h-12.6V38.8zM167.1 64.9c7.6 0 11.5-2.5 11.5-8.4.3-5.8-3.9-8.5-11.3-8.5h-12v17h11.8V64.9zM195.6 53.4c0-13.1 8.8-22.3 21.2-22.3 12.9 0 20.5 8.5 20.5 21.9v3.8h-30.7c.7 6.1 4.7 9.5 10.7 9.5 6.3 0 9-3 10.3-6.6l9.7 3.4c-3 6.8-9.2 11.9-20.2 11.9C203.9 75.1 195.6 66.6 195.6 53.4M206.4 49.1h19.7c-.5-6.2-3.8-9.3-9.5-9.3C211.2 39.7 207.2 43.2 206.4 49.1M259 62L268 32 280 32 264 74 254 74 237 32 249 32zM279.2 63.1c0-9.5 7.1-11.7 16.6-13.8 7.8-1.5 11.8-1.9 12-4.2v-.4c0-2.5-2.2-4.9-8-4.9s-8.399 2.9-8.7 6.7v.6H280c.4-9.6 7.9-16 19.9-16 11.5 0 18.5 5 18.5 16.5v26.7h-10.7V68.5c-2.7 4.401-7.5 6.801-13.8 6.801C284.9 75.401 279.2 70.5 279.2 63.1M307.9 56.8v-3.6c-2.4 1.4-6.4 2.2-9.9 3.1-4.3 1.1-7.5 2.5-7.5 6.3 0 2.899 2.2 4.899 6.1 4.899C301.9 67.401 307.6 64.7 307.9 56.8M337.4 39.7c1.199-4.9 4.3-8.3 12.1-8.3h.9v10.7H346c-6.7 0-8.6 3.1-8.6 10.4v21.8H326.3V31.9H337.4V39.7zM407 74L395 74 395 49 369 49 369 74 357 74 357 15 368 15 368 39 395 39 395 15 407 15 407 74zM448 58L462 15 480 15 480 74 469 74 469 25 452 74 442 74 427 25 427 74 416 74 416 15 435 15zM485.8 55h11.8c1.4 7.7 5.5 10.8 14 10.8 7.2 0 11.301-3.1 11.301-8.5 0-5.2-6.7-6.5-14.801-8.1C498.2 47.2 487.4 44 487.4 32.1c0-10.9 9.3-18.6 22.1-18.6 14.1 0 23.1 7.2 24.5 20.1h-11.6c-1-7.3-5.2-10.6-13-10.6-6.7 0-10.7 3.2-10.7 8.3 0 5.7 7.5 6.5 15.6 8.1 9.8 1.9 20 4.9 20 17 0 11.4-8.399 19-22.3 19C496.2 75.3 487.8 67.7 485.8 55M104.9 47.201L59.1 7.5c-1.2-1.1-3.1-1.1-4.4 0L8.9 47.201c-.7.599-1.2 1.599-1.2 2.5v65.5c0 1.799 1.4 3.2 3.2 3.2h60.2c2.6 0 5.1-.901 7.1-2.5L103.7 95.5c1.3-1.099 2.1-2.7 2.2-4.399V49.6C106 48.8 105.6 47.8 104.9 47.201M52.6 97.6c.4-.399 1-.699 1.6-.699h13.2c3 0 5.7-2.102 6.1-4.901.3-1.599-.1-3.099-1-4.399s-2.3-2.199-3.8-2.399C68.4 85.1 68 85.1 67.7 85.1h-27c-4.6 0-9.2 1.601-12.8 4.5l-7.7 6.301h-3.8V52.6c0-.3.1-.6.4-.8l39.5-34.2c.4-.399 1-.399 1.4 0l39.5 34.2c.2.2.4.5.4.8v33L80.6 99c-1.8 1.5-4.1 2.3-6.4 2.3H54.4c-1.2 0-2.3-.898-2.4-2C52 98.6 52.2 98 52.6 97.6M162 115L159 115 159 104 146 104 146 115 144 115 144 92 147 92 147 102 160 102 160 92 162 92 162 115zM165 106.7c0-5 3.3-8.5 7.9-8.5s7.5 3.2 7.5 8.301v.899h-13c.2 3.4 2.2 5.7 5.6 5.7 3.2 0 4.7-1.6 5.4-3.4l2.1.801c-1 2.5-3.3 4.699-7.5 4.699C168 115 165 111.6 165 106.7M167.4 105.5h10.5c-.1-3.4-2-5.4-5-5.4C169.8 100.1 167.7 102.3 167.4 105.5M184 92H186.4V115.2H184zM188.7 111.901l2-1.102c1.3 1.701 3.3 2.401 5.2 2.401 2.2 0 3.7-1.102 3.7-2.8 0-1.802-2.1-2.2-4.8-2.9-3.2-.701-5.5-1.6-5.5-4.6 0-2.7 2.5-4.7 5.8-4.7 2.8 0 5 1.2 6.6 3.099l-1.9 1.201c-1.2-1.5-2.9-2.3-4.7-2.3-2.1 0-3.4 1-3.4 2.599 0 1.8 1.4 2.102 4.4 2.701 2.9.7 5.9 1.7 5.9 4.799 0 2.901-2.4 5-6 5C192.9 115.099 190.3 114 188.7 111.901M203.6 106.7c0-5 3.3-8.5 7.9-8.5s7.5 3.2 7.5 8.301v.899h-13c.2 3.4 2.2 5.7 5.6 5.7 3.2 0 4.7-1.6 5.4-3.4l2.1.801c-1 2.5-3.3 4.699-7.5 4.699C206.6 115 203.6 111.6 203.6 106.7M206 105.5h10.5c-.1-3.4-2-5.4-5-5.4C208.4 100.1 206.2 102.3 206 105.5M220.7 118.6c1.9-.699 2.5-1.899 2.5-4h-1.7v-3.301h3.4v3.102c0 2.8-1.2 4.599-3.9 5.199L220.7 118.6zM236.9 101.8c.8-2.301 2.4-3.7 4.9-3.7 2.2 0 3.9 1.2 4.6 3.801.8-2.301 2.6-3.801 5.2-3.801 3.1 0 5 2.2 5 6v10.6h-2.4V104.3c0-2.7-1.1-4-3.3-4-2.5 0-4 2.199-4 5.899v8.601h-2.4V104.7c0-3.1-1.2-4.399-3.4-4.399-2.5 0-4 2.101-4 5.8v8.7h-2.4V98.5h2.4v3.301H236.9zM262.9 95.6h-2.7v-2.699h2.7V95.6zM262.8 114.7h-2.4V98.5h2.4V114.7zM267 92H269.4V115.2H267zM271.3 119c1.8 0 2.2-.4 2.2-2.7V98.5h2.4V116.4c0 3.7-1.2 4.8-4.7 4.8h-.7V119H271.3zM276.1 95.6h-2.698v-2.699h2.698V95.6zM281.7 113.3l-1.3 1.4h-1.9l2.2-2.4c-1.2-1.4-1.8-3.4-1.8-5.701 0-5 3.3-8.398 8.1-8.398 2 0 3.8.699 5.1 1.699l1.4-1.6h1.9l-2.301 2.5c1.2 1.5 1.9 3.4 1.9 5.799 0 5-3.3 8.401-8.1 8.401C284.9 115 283.1 114.4 281.7 113.3M290.7 101.5c-.9-.8-2.2-1.3-3.7-1.3-3.5 0-5.7 2.5-5.7 6.398v.102c0 1.6.3 2.898 1 3.898L290.7 101.5zM292.7 106.701v-.102c0-1.599-.4-3-1-4l-8.5 9.201c1 .9 2.2 1.299 3.8 1.299C290.5 113 292.7 110.599 292.7 106.701M303.9 106.599c0-5 3.3-8.398 8.1-8.398s8 3.398 8 8.398S316.7 115 311.9 115C307.1 115 303.9 111.599 303.9 106.599M317.5 106.701v-.102c0-3.898-2.1-6.398-5.6-6.398s-5.7 2.5-5.7 6.398v.102c0 3.898 2.1 6.3 5.6 6.3S317.5 110.5 317.5 106.701M326.5 109.401c-2-.102-2.8.698-2.8 1.6 0 1.099 1.3 1.799 3.399 1.799h2.9c5.2 0 7.5 1.401 7.5 4.5 0 3.201-3.1 5.102-8.5 5.102-5.3 0-7.9-1.5-7.9-4.4 0-1.8 1.301-3.1 3.4-3.701-1.9-.398-3-1.398-3-2.898s1.1-2.5 3-2.9c-1.4-1-2.3-2.701-2.3-4.6 0-3.4 2.899-5.9 6.6-5.9 2.5 0 4.5 1.099 5.601 2.9.5-1.4 1.399-2.302 3.199-2.302v2.5c-1-.3-2-.099-2.699 1 .199.602.3 1.2.3 1.901 0 3.5-2.601 5.799-6.601 5.799C327.9 109.701 327.2 109.599 326.5 109.401M327.5 114.901c-2.4.198-4.2 1.3-4.2 2.898 0 1.8 1.9 2.8 5.8 2.8 4 0 6.301-1.099 6.301-3.099 0-1.901-1.5-2.5-5.5-2.5h-2.4V114.901zM333.2 103.901L333.2 103.901c0-2.5-1.8-4.102-4.3-4.102s-4.301 1.602-4.301 4v.102c0 2.398 1.7 3.898 4.2 3.898C331.5 107.799 333.2 106.401 333.2 103.901M345.5 111.901l2-1.102c1.3 1.701 3.3 2.401 5.2 2.401 2.2 0 3.7-1.102 3.7-2.8 0-1.802-2.101-2.2-4.801-2.9-3.199-.701-5.5-1.6-5.5-4.6 0-2.7 2.5-4.7 5.801-4.7 2.8 0 5 1.2 6.6 3.099l-1.9 1.201c-1.199-1.5-2.899-2.3-4.699-2.3-2.101 0-3.4 1-3.4 2.599 0 1.8 1.4 2.102 4.4 2.701 2.899.7 5.899 1.7 5.899 4.799 0 2.901-2.399 5-6 5C349.7 115.099 347 114 345.5 111.901M364 95.6h-2.7v-2.699h2.7V95.6zM363.8 114.7h-2.398V98.5h2.398V114.7zM370 107L378 99 381 99 375 105 381 115 378 115 373 106 370 109 370 115 368 115 368 92 370 92 370 107zM386 107L394 99 396 99 390 105 397 115 394 115 389 106 386 109 386 115 383 115 383 92 386 92zM397.2 106.7c0-5 3.3-8.5 7.899-8.5 4.601 0 7.5 3.2 7.5 8.301v.899h-13c.2 3.4 2.2 5.7 5.601 5.7 3.2 0 4.7-1.6 5.399-3.4l2.101.801c-1 2.5-3.3 4.699-7.5 4.699C400.3 115 397.2 111.6 397.2 106.7M399.6 105.5h10.5c-.1-3.4-2-5.4-5-5.4C402 100.1 399.9 102.3 399.6 105.5M418.1 101.8c.601-2.2 1.9-3.399 4.9-3.399h.8v2.299H422.4c-3.301 0-4.2 1.9-4.2 5.9v8.2h-2.4V98.5h2.4v3.301H418.1zM428.6 102.201c.9-2.5 2.7-4 5.4-4 3.4 0 5.7 2.3 5.7 6.398V114.8h-2.4v-10c0-2.9-1.399-4.4-3.8-4.4-3.2 0-4.9 2.699-4.9 7.4v7h-2.3V91.5h2.3V102.201zM442.4 106.7c0-5 3.3-8.5 7.899-8.5 4.601 0 7.5 3.2 7.5 8.301v.899h-13c.2 3.4 2.2 5.7 5.601 5.7 3.199 0 4.699-1.6 5.399-3.4l2.101.801c-1 2.5-3.301 4.699-7.5 4.699C445.5 115 442.4 111.6 442.4 106.7M444.8 105.5h10.5c-.1-3.4-2-5.4-5-5.4C447.2 100.1 445.1 102.3 444.8 105.5M465.4 114.701c-2.801-.102-3.7-1.301-3.7-3.9v-10.3h-2.9V98.4h2.9V95L464 93.4v5h3.9v2.101H464v10.099c0 1.401.5 2 1.9 2.102h1.899v2.1H465.4V114.701z"/>
  </g>
</svg>
