<svg xmlns="http://www.w3.org/2000/svg" width="20.984" height="22.548" viewBox="0 0 20.984 22.548">
  <g id="Group_1317" data-name="Group 1317" transform="translate(-1776.946 -25.18)">
    <path id="Union_4" data-name="Union 4" d="M8613.806-12701.37h-13.627c-.587,0-1.173,0-1.76,0h-.558a1.055,1.055,0,0,1-.149-.011.8.8,0,0,1-.3-.1.783.783,0,0,1-.408-.693.681.681,0,0,1,.032-.251h0a0,0,0,0,1,0,0,.848.848,0,0,1,.163-.3c.517-.591,1.054-1.165,1.577-1.749.3-.326.6-.651.878-.993a1.922,1.922,0,0,0,.415-1.235c0-1.306-.007-2.614,0-3.923a6.465,6.465,0,0,1,.878-3.225,6.764,6.764,0,0,1,1.759-2.011,6.806,6.806,0,0,1,2.771-1.289c.313-.07.316-.067.313-.393a1.525,1.525,0,0,1,.173-.875,1.2,1.2,0,0,1,1.03-.578,1.2,1.2,0,0,1,1.028.578,1.551,1.551,0,0,1,.176.875c-.007.325,0,.322.31.393a6.782,6.782,0,0,1,2.771,1.289,6.724,6.724,0,0,1,1.759,2.011,6.465,6.465,0,0,1,.878,3.225c.013,1.309,0,2.617,0,3.923a2.133,2.133,0,0,0,.126.729,1.9,1.9,0,0,0,.123.264,1.718,1.718,0,0,0,.166.242c.281.342.581.667.878.993.523.584,1.06,1.158,1.577,1.749a.818.818,0,0,1,.18.362.667.667,0,0,1,.017.192.783.783,0,0,1-.384.679.789.789,0,0,1-.327.115,1.055,1.055,0,0,1-.149.011h-2.317Z" transform="translate(-6819.554 12744.68)" fill="#fff" stroke="rgba(0,0,0,0)" stroke-miterlimit="10" stroke-width="1"/>
    <path id="Path_56" data-name="Path 56" d="M853.626,710.957h3.013c.165,0,.165,0,.155.168a3.191,3.191,0,0,1-5.137,2.271,2.985,2.985,0,0,1-1.209-2.291c-.007-.113.021-.15.141-.15C851.6,710.96,852.614,710.957,853.626,710.957Z" transform="translate(933.813 -666.342)" fill="#fff"/>
  </g>
</svg>
