<svg xmlns="http://www.w3.org/2000/svg" width="23.046" height="22.525" viewBox="0 0 23.046 22.525">
  <g id="Group_1318" data-name="Group 1318" transform="translate(-211.827 -116.238)">
    <path id="Path_1144" data-name="Path 1144" d="M-2270.213-418.788a5.281,5.281,0,0,1-4.032-1.9,7.062,7.062,0,0,1,.394-9.534,5.167,5.167,0,0,1,3.725-1.51,5.208,5.208,0,0,1,3.844,1.759,6.637,6.637,0,0,1,1.778,4.145,6.785,6.785,0,0,1-1.7,5.209,5.332,5.332,0,0,1-3.48,1.824A4.665,4.665,0,0,1-2270.213-418.788Z" transform="translate(2493.544 547.967)" fill="#fff"/>
    <path id="Union_6" data-name="Union 6" d="M8608.021-12710.355q-4.783,0-9.565,0a1.685,1.685,0,0,1-.256-.021,1.346,1.346,0,0,1-1.173-1.211c-.006-.044-.009-.089-.011-.134q-.007-.2-.012-.407c-.012-.529,0-1.061.012-1.588a.661.661,0,0,1,.022-.156,1.9,1.9,0,0,1,1.057-1.593c2.1-1.14,4.2-2.264,6.3-3.4l.061-.03.09-.049a.313.313,0,0,1,.345,0l.052.027c.03.012.062.025.095.042a6.536,6.536,0,0,0,2.988.761,6.529,6.529,0,0,0,2.987-.761.88.88,0,0,1,.095-.042l.052-.027a.313.313,0,0,1,.345,0l.09.049.061.03c2.1,1.14,4.2,2.264,6.3,3.4a1.9,1.9,0,0,1,1.057,1.593.668.668,0,0,1,.022.156c.015.528.023,1.06.011,1.59,0,.135-.006.271-.011.405,0,.045-.006.09-.011.134a1.348,1.348,0,0,1-1.187,1.214,1.774,1.774,0,0,1-.241.019h-9.568Z" transform="translate(-8384.672 12848.617)" fill="#fff" stroke="rgba(0,0,0,0)" stroke-miterlimit="10" stroke-width="1"/>
  </g>
</svg>
