<svg xmlns="http://www.w3.org/2000/svg" width="46.041" height="33.665" viewBox="0 0 46.041 33.665">
  <g id="Group_1344" data-name="Group 1344" transform="translate(-839 -245.26)">
    <g id="Group_1271" data-name="Group 1271" transform="translate(444 -726)">
      <g id="Group_1250" data-name="Group 1250" transform="translate(306.055 -1215.729)">
        <path id="Path_1107" data-name="Path 1107" d="M126.1,2220.654H89.945a1,1,0,0,1,0-2H125.1V2215.5a1,1,0,0,1,2,0v4.158A1,1,0,0,1,126.1,2220.654Z" fill="#1a1818"/>
      </g>
      <g id="Group_1251" data-name="Group 1251" transform="translate(306.055 -1215.729)">
        <path id="Path_1108" data-name="Path 1108" d="M126.094,2215.5" fill="none" stroke="#1a1818" stroke-linecap="round" stroke-linejoin="round" stroke-width="2"/>
      </g>
      <g id="Group_1252" data-name="Group 1252" transform="translate(306.055 -1215.729)">
        <path id="Path_1109" data-name="Path 1109" d="M126.1,2188.989H89.945a1,1,0,0,1,0-2H126.1a1,1,0,1,1,0,2Z" fill="#1a1818"/>
      </g>
      <g id="Group_1253" data-name="Group 1253" transform="translate(306.055 -1215.729)">
        <path id="Path_1110" data-name="Path 1110" d="M126.1,2202.547H89.945a1,1,0,0,1,0-2H126.1a1,1,0,1,1,0,2Z" fill="#1a1818"/>
      </g>
      <g id="Group_1254" data-name="Group 1254" transform="translate(306.055 -1215.729)">
        <path id="Path_1111" data-name="Path 1111" d="M133.986,2211.578H115.879a1,1,0,0,1-.707-1.707l4.053-4.053a1,1,0,0,1,1.414,1.414l-2.346,2.346h15.693a1,1,0,1,1,0,2Z" fill="#1a1818"/>
      </g>
      <g id="Group_1255" data-name="Group 1255" transform="translate(306.055 -1215.729)">
        <path id="Path_1112" data-name="Path 1112" d="M119.94,2215.639a1,1,0,0,1-.707-.293l-4.061-4.061a1,1,0,0,1,1.414-1.414l4.061,4.061a1,1,0,0,1-.707,1.707Z" fill="#1a1818"/>
      </g>
    </g>
  </g>
</svg>
