<svg xmlns="http://www.w3.org/2000/svg" width="45.62" height="44.227" viewBox="0 0 45.62 44.227">
  <g id="Group_1339" data-name="Group 1339" transform="translate(-489.37 -610.675)">
    <g id="Group_1270" data-name="Group 1270" transform="translate(-54 -356)">
      <g id="Group_1209" data-name="Group 1209" transform="translate(566.021 987.806)">
        <path id="Path_1069" data-name="Path 1069" d="M269.233,2220.844a1.374,1.374,0,0,1-.974-.4l-10.3-10.3a1.362,1.362,0,0,1-.315-.486l-3.789-10.037a1.377,1.377,0,0,1,1.793-1.768l9.912,3.915a1.379,1.379,0,0,1,.468.307l10.3,10.3a1.377,1.377,0,0,1-1.947,1.947l-10.1-10.1-6.751-2.666,2.585,6.848,10.095,10.095a1.377,1.377,0,0,1-.974,2.351Z" transform="translate(-253.762 -2197.747)" fill="#1a1818"/>
      </g>
      <g id="Group_1238" data-name="Group 1238" transform="translate(543.37 966.675)">
        <path id="Path_1098" data-name="Path 1098" d="M258.639,2217.232H238.692a1.377,1.377,0,0,1-1.377-1.377v-10.417a17.788,17.788,0,0,1,11.267-16.577,6.572,6.572,0,0,1,13.143,0,17.947,17.947,0,0,1,11.091,14.057,1.378,1.378,0,0,1-2.728.387,15.165,15.165,0,0,0-10.249-12.2,1.377,1.377,0,0,1-.932-1.527,3.765,3.765,0,0,0,.066-.6,3.818,3.818,0,1,0-7.637,0,3.93,3.93,0,0,0,.065.6,1.376,1.376,0,0,1-.931,1.527,15.046,15.046,0,0,0-10.4,14.331v9.04h18.57a1.377,1.377,0,0,1,0,2.754Z" transform="translate(-237.315 -2182.404)" fill="#1a1818"/>
      </g>
      <g id="Group_1239" data-name="Group 1239" transform="translate(577.505 987.382)">
        <path id="Path_1099" data-name="Path 1099" d="M262.1,2197.44" transform="translate(-262.101 -2197.44)" fill="none" stroke="#1a1818" stroke-linecap="round" stroke-linejoin="round" stroke-width="2"/>
      </g>
      <g id="Group_1240" data-name="Group 1240" transform="translate(564.694 1000.127)">
        <path id="Path_1100" data-name="Path 1100" d="M252.8,2206.694" transform="translate(-252.799 -2206.694)" fill="none" stroke="#1a1818" stroke-linecap="round" stroke-linejoin="round" stroke-width="2"/>
      </g>
    </g>
  </g>
</svg>
