<svg xmlns="http://www.w3.org/2000/svg" width="44.392" height="34.473" viewBox="0 0 44.392 34.473">
  <g id="Group_1338" data-name="Group 1338" transform="translate(-845.394 -611.171)">
    <g id="Group_1337" data-name="Group 1337">
      <g id="Group_1269" data-name="Group 1269" transform="translate(158.063 -355.504)">
        <g id="Group_1241" data-name="Group 1241" transform="translate(687.332 966.675)">
          <path id="Path_1101" data-name="Path 1101" d="M402.384,2216.876H382.64a1.363,1.363,0,0,1-1.363-1.363V2205.2a17.607,17.607,0,0,1,11.152-16.408,6.505,6.505,0,0,1,13.008,0,17.752,17.752,0,0,1,6.332,4.291,1.363,1.363,0,1,1-1.981,1.874,15,15,0,0,0-6.217-3.943,1.363,1.363,0,0,1-.923-1.512,3.721,3.721,0,0,0,.064-.6,3.779,3.779,0,1,0-7.557,0,3.721,3.721,0,0,0,.064.6,1.362,1.362,0,0,1-.923,1.512A14.892,14.892,0,0,0,384,2205.2v8.948h18.381a1.363,1.363,0,0,1,0,2.726Z" transform="translate(-381.277 -2182.404)" fill="#1a1818"/>
        </g>
        <g id="Group_1242" data-name="Group 1242" transform="translate(716.833 978.296)">
          <path id="Path_1102" data-name="Path 1102" d="M402.919,2190.929" transform="translate(-402.919 -2190.929)" fill="none" stroke="#1a1818" stroke-linecap="round" stroke-linejoin="round" stroke-width="2"/>
        </g>
        <g id="Group_1243" data-name="Group 1243" transform="translate(708.439 999.786)">
          <path id="Path_1103" data-name="Path 1103" d="M396.761,2206.694" transform="translate(-396.761 -2206.694)" fill="none" stroke="#1a1818" stroke-linecap="round" stroke-linejoin="round" stroke-width="2"/>
        </g>
        <g id="Group_1244" data-name="Group 1244" transform="translate(718.188 985.163)">
          <path id="Path_1104" data-name="Path 1104" d="M416.086,2198.693h-10.81a1.363,1.363,0,0,1,0-2.726h10.81a1.363,1.363,0,1,1,0,2.726Z" transform="translate(-403.913 -2195.967)" fill="#1a1818"/>
        </g>
        <g id="Group_1245" data-name="Group 1245" transform="translate(718.188 991.792)">
          <path id="Path_1105" data-name="Path 1105" d="M416.086,2203.556h-10.81a1.363,1.363,0,0,1,0-2.726h10.81a1.363,1.363,0,1,1,0,2.726Z" transform="translate(-403.913 -2200.83)" fill="#1a1818"/>
        </g>
        <g id="Group_1246" data-name="Group 1246" transform="translate(718.188 998.421)">
          <path id="Path_1106" data-name="Path 1106" d="M416.086,2208.419h-10.81a1.363,1.363,0,0,1,0-2.726h10.81a1.363,1.363,0,1,1,0,2.726Z" transform="translate(-403.913 -2205.693)" fill="#1a1818"/>
        </g>
        <g id="Group_1247" data-name="Group 1247" transform="translate(714.41 986.526)">
          <line id="Line_431" data-name="Line 431" transform="translate(0)" fill="none"/>
        </g>
        <g id="Group_1248" data-name="Group 1248" transform="translate(714.41 993.156)">
          <line id="Line_432" data-name="Line 432" transform="translate(0)" fill="none"/>
        </g>
        <g id="Group_1249" data-name="Group 1249" transform="translate(714.41 999.785)">
          <line id="Line_433" data-name="Line 433" transform="translate(0)" fill="none"/>
        </g>
      </g>
    </g>
  </g>
</svg>
