<svg xmlns="http://www.w3.org/2000/svg" width="46" height="35.556" viewBox="0 0 46 35.556">
  <g id="Group_1340" data-name="Group 1340" transform="translate(-490.001 -427.032)">
    <g id="Group_1267" data-name="Group 1267" transform="translate(-334 -393)">
      <g id="Group_1210" data-name="Group 1210" transform="translate(850.32 832.374)">
        <path id="Path_1070" data-name="Path 1070" d="M557.943,2067.661a1.012,1.012,0,0,1-.72-.3L546.9,2057.041a1.016,1.016,0,0,1-.233-.36l-2.8-7.417a1.017,1.017,0,0,1,1.326-1.306l7.323,2.894a1.021,1.021,0,0,1,.346.226l10.323,10.322a1.018,1.018,0,0,1-1.439,1.439l-10.174-10.172-4.988-1.971,1.91,5.062,10.166,10.167a1.018,1.018,0,0,1-.72,1.738Z" transform="translate(-543.804 -2047.886)" fill="#1a1818"/>
      </g>
      <g id="Group_1221" data-name="Group 1221" transform="translate(824.001 841.916)">
        <path id="Path_1081" data-name="Path 1081" d="M547.032,2070.934H518.964a1.017,1.017,0,0,1-1.018-1.018,15.044,15.044,0,0,1,6.636-12.48,1.018,1.018,0,0,1,1.139,1.688,13.007,13.007,0,0,0-5.7,9.775h25.953a13,13,0,0,0-5.7-9.775,1.018,1.018,0,1,1,1.139-1.687,15.043,15.043,0,0,1,6.635,12.48A1.017,1.017,0,0,1,547.032,2070.934Z" transform="translate(-517.946 -2057.262)" fill="#1a1818"/>
      </g>
      <g id="Group_1222" data-name="Group 1222" transform="translate(830.343 820.032)">
        <path id="Path_1082" data-name="Path 1082" d="M532.886,2053.182a8.71,8.71,0,1,1,8.711-8.71A8.72,8.72,0,0,1,532.886,2053.182Zm0-15.385a6.675,6.675,0,1,0,6.676,6.675A6.682,6.682,0,0,0,532.886,2037.8Z" transform="translate(-524.177 -2035.761)" fill="#1a1818"/>
      </g>
      <g id="Group_1223" data-name="Group 1223" transform="translate(838.034 841.916)">
        <path id="Path_1083" data-name="Path 1083" d="M532.752,2070.934h0a1.018,1.018,0,0,1-1.017-1.019l.012-9.508a1.014,1.014,0,0,1,.3-.719l2.129-2.128a1.018,1.018,0,0,1,1.439,1.439l-1.832,1.831-.011,9.087A1.018,1.018,0,0,1,532.752,2070.934Z" transform="translate(-531.734 -2057.262)" fill="#1a1818"/>
      </g>
      <g id="Group_1224" data-name="Group 1224" transform="translate(835.919 841.916)">
        <path id="Path_1084" data-name="Path 1084" d="M532.8,2061.426a1.016,1.016,0,0,1-.72-.3L529.953,2059a1.018,1.018,0,0,1,1.439-1.439l2.128,2.128a1.018,1.018,0,0,1-.72,1.738Z" transform="translate(-529.656 -2057.262)" fill="#1a1818"/>
      </g>
      <g id="Group_1225" data-name="Group 1225" transform="translate(835.918 841.916)">
        <path id="Path_1085" data-name="Path 1085" d="M534.93,2059.3h-4.257a1.018,1.018,0,1,1,0-2.035h4.257a1.018,1.018,0,1,1,0,2.035Z" transform="translate(-529.655 -2057.262)" fill="#1a1818"/>
      </g>
    </g>
  </g>
</svg>
