<svg xmlns="http://www.w3.org/2000/svg" width="48.444" height="32.526" viewBox="0 0 48.444 32.526">
  <g id="Group_1343" data-name="Group 1343" transform="translate(-1193.384 -245.958)">
    <g id="Group_1266" data-name="Group 1266" transform="translate(513 -574)">
      <g id="Group_1208" data-name="Group 1208" transform="translate(706.17 829.713)">
        <path id="Path_1068" data-name="Path 1068" d="M414.035,2067.2a1.114,1.114,0,0,1-.789-.327l-12.4-12.4a1.124,1.124,0,0,1-.254-.395l-3.068-8.128a1.115,1.115,0,0,1,1.452-1.431l8.026,3.171a1.1,1.1,0,0,1,.379.247l12.4,12.4a1.115,1.115,0,0,1-1.577,1.577l-12.239-12.238-5.466-2.16,2.093,5.547,12.231,12.232a1.115,1.115,0,0,1-.788,1.9Z" transform="translate(-397.45 -2044.434)" fill="#1a1818"/>
      </g>
      <g id="Group_1214" data-name="Group 1214" transform="translate(717.487 851.368)">
        <path id="Path_1074" data-name="Path 1074" d="M407.6,2063.85" transform="translate(-407.597 -2063.85)" fill="none" stroke="#1a1818" stroke-linecap="round" stroke-linejoin="round" stroke-width="2"/>
      </g>
      <g id="Group_1215" data-name="Group 1215" transform="translate(680.384 819.958)">
        <path id="Path_1075" data-name="Path 1075" d="M405.947,2068.213h-30.5a1.115,1.115,0,0,1-1.115-1.115v-30.3a1.115,1.115,0,0,1,2.231,0v29.18h29.387a1.115,1.115,0,1,1,0,2.23Z" transform="translate(-374.329 -2035.687)" fill="#1a1818"/>
      </g>
      <g id="Group_1216" data-name="Group 1216" transform="translate(712.002 851.368)">
        <path id="Path_1076" data-name="Path 1076" d="M402.679,2063.85" transform="translate(-402.679 -2063.85)" fill="none" stroke="#1a1818" stroke-linecap="round" stroke-linejoin="round" stroke-width="2"/>
      </g>
      <g id="Group_1217" data-name="Group 1217" transform="translate(721.944 834.678)">
        <path id="Path_1077" data-name="Path 1077" d="M411.594,2048.886" transform="translate(-411.594 -2048.886)" fill="none" stroke="#1a1818" stroke-linecap="round" stroke-linejoin="round" stroke-width="2"/>
      </g>
      <g id="Group_1218" data-name="Group 1218" transform="translate(680.384 819.958)">
        <path id="Path_1078" data-name="Path 1078" d="M415.89,2051.524a1.116,1.116,0,0,1-1.115-1.115v-12.491h-39.33a1.115,1.115,0,0,1,0-2.231H415.89A1.115,1.115,0,0,1,417,2036.8v13.606A1.116,1.116,0,0,1,415.89,2051.524Z" transform="translate(-374.329 -2035.687)" fill="#1a1818"/>
      </g>
      <g id="Group_1219" data-name="Group 1219" transform="translate(686.949 829.714)">
        <path id="Path_1079" data-name="Path 1079" d="M385.486,2054.973a5.269,5.269,0,1,1,5.269-5.27A5.275,5.275,0,0,1,385.486,2054.973Zm0-8.308a3.039,3.039,0,1,0,3.038,3.038A3.042,3.042,0,0,0,385.486,2046.666Z" transform="translate(-380.216 -2044.435)" fill="#1a1818"/>
      </g>
      <g id="Group_1220" data-name="Group 1220" transform="translate(695.877 829.713)">
        <path id="Path_1080" data-name="Path 1080" d="M389.335,2067.2a1.1,1.1,0,0,1-.49-.115,1.115,1.115,0,0,1-.511-1.493l10.066-20.539a1.116,1.116,0,0,1,2,.983l-10.066,20.539A1.118,1.118,0,0,1,389.335,2067.2Z" transform="translate(-388.221 -2044.433)" fill="#1a1818"/>
      </g>
    </g>
  </g>
</svg>
