<svg xmlns="http://www.w3.org/2000/svg" width="56.355" height="34.934" viewBox="0 0 56.355 34.934">
  <g id="Group_1342" data-name="Group 1342" transform="translate(-1193.408 -427.032)">
    <g id="Group_1268" data-name="Group 1268" transform="translate(232 -392)">
      <g id="Group_1226" data-name="Group 1226" transform="translate(306.055 -1215.729)">
        <path id="Path_1086" data-name="Path 1086" d="M706.264,2066.315a.993.993,0,0,1-.707-.293l-10.142-10.141a.983.983,0,0,1-.228-.354l-2.751-7.287a1,1,0,0,1,1.3-1.283l7.2,2.843a1,1,0,0,1,.339.222l10.141,10.141a1,1,0,0,1-1.414,1.414l-9.994-9.994-4.9-1.937,1.877,4.973,9.99,9.989a1,1,0,0,1-.707,1.707Z" fill="#1a1818"/>
      </g>
      <g id="Group_1227" data-name="Group 1227" transform="translate(306.055 -1215.729)">
        <path id="Path_1087" data-name="Path 1087" d="M695.091,2069.7H667.513a1,1,0,0,1-1-1,14.78,14.78,0,0,1,6.519-12.262,1,1,0,1,1,1.119,1.658,12.779,12.779,0,0,0-5.6,9.6h25.5a12.783,12.783,0,0,0-5.6-9.6,1,1,0,0,1,1.119-1.658,14.779,14.779,0,0,1,6.521,12.262A1,1,0,0,1,695.091,2069.7Z" fill="#1a1818"/>
      </g>
      <g id="Group_1228" data-name="Group 1228" transform="translate(306.055 -1215.729)">
        <path id="Path_1088" data-name="Path 1088" d="M681.3,2051.877a8.558,8.558,0,1,1,8.557-8.558A8.568,8.568,0,0,1,681.3,2051.877Zm0-15.116a6.558,6.558,0,1,0,6.557,6.558A6.566,6.566,0,0,0,681.3,2036.761Z" fill="#1a1818"/>
      </g>
      <g id="Group_1229" data-name="Group 1229" transform="translate(306.055 -1215.729)">
        <path id="Path_1089" data-name="Path 1089" d="M663.233,2069.7h-6.88a1,1,0,0,1-1-1,14.779,14.779,0,0,1,6.519-12.261,1,1,0,1,1,1.119,1.656,12.784,12.784,0,0,0-5.6,9.6h5.841a1,1,0,0,1,0,2Z" fill="#1a1818"/>
      </g>
      <g id="Group_1230" data-name="Group 1230" transform="translate(306.055 -1215.729)">
        <path id="Path_1090" data-name="Path 1090" d="M672.217,2036.049" fill="none" stroke="#1a1818" stroke-linecap="round" stroke-linejoin="round" stroke-width="2"/>
      </g>
      <g id="Group_1231" data-name="Group 1231" transform="translate(306.055 -1215.729)">
        <path id="Path_1091" data-name="Path 1091" d="M670.142,2051.877a8.558,8.558,0,1,1,2.35-16.789,1,1,0,1,1-.551,1.924,6.558,6.558,0,1,0-1.8,12.865,6.574,6.574,0,0,0,1.8-.25,1,1,0,1,1,.547,1.924A8.558,8.558,0,0,1,670.142,2051.877Z" fill="#1a1818"/>
      </g>
      <g id="Group_1232" data-name="Group 1232" transform="translate(306.055 -1215.729)">
        <path id="Path_1092" data-name="Path 1092" d="M672.217,2050.589" fill="none" stroke="#1a1818" stroke-linecap="round" stroke-linejoin="round" stroke-width="2"/>
      </g>
      <g id="Group_1233" data-name="Group 1233" transform="translate(306.055 -1215.729)">
        <path id="Path_1093" data-name="Path 1093" d="M672.922,2036.289" fill="none" stroke="#1a1818" stroke-linecap="round" stroke-linejoin="round" stroke-width="2"/>
      </g>
      <g id="Group_1234" data-name="Group 1234" transform="translate(306.055 -1215.729)">
        <path id="Path_1094" data-name="Path 1094" d="M681.3,2069.7h0a1,1,0,0,1-1-1l.011-9.342a1,1,0,0,1,.293-.706l2.091-2.091a1,1,0,1,1,1.414,1.414l-1.8,1.8-.01,8.928A1,1,0,0,1,681.3,2069.7Z" fill="#1a1818"/>
      </g>
      <g id="Group_1235" data-name="Group 1235" transform="translate(306.055 -1215.729)">
        <path id="Path_1095" data-name="Path 1095" d="M681.313,2060.353a1,1,0,0,1-.707-.293l-2.091-2.091a1,1,0,0,1,1.414-1.414l2.092,2.091a1,1,0,0,1-.708,1.707Z" fill="#1a1818"/>
      </g>
      <g id="Group_1236" data-name="Group 1236" transform="translate(306.055 -1215.729)">
        <path id="Path_1096" data-name="Path 1096" d="M683.4,2058.262h-4.182a1,1,0,0,1,0-2H683.4a1,1,0,0,1,0,2Z" fill="#1a1818"/>
      </g>
    </g>
  </g>
</svg>
