<svg xmlns="http://www.w3.org/2000/svg" width="57.47" height="37.892" viewBox="0 0 57.47 37.892">
  <g id="Group_1329" data-name="Group 1329" transform="translate(-833.59 -242.18)">
    <g id="Group_1180" data-name="Group 1180" transform="translate(-121 -473)">
      <g id="Group_1171" data-name="Group 1171" transform="translate(440.769 -674.226)">
        <path id="Path_1041" data-name="Path 1041" d="M514.821,1409.346a1,1,0,0,1-.707-1.707l17.952-17.952a1.029,1.029,0,0,1,1.414,0l11.369,11.369a1,1,0,0,1-1.414,1.414l-10.662-10.662-17.245,17.245A1,1,0,0,1,514.821,1409.346Z" fill="#1a1818"/>
      </g>
      <g id="Group_1172" data-name="Group 1172" transform="translate(440.769 -674.226)">
        <path id="Path_1042" data-name="Path 1042" d="M544.142,1401.763" fill="none" stroke="#1a1818" stroke-linecap="round" stroke-linejoin="round" stroke-width="2"/>
      </g>
      <g id="Group_1173" data-name="Group 1173" transform="translate(440.769 -674.226)">
        <path id="Path_1043" data-name="Path 1043" d="M538.757,1427.3a1,1,0,0,1-1-1v-16.952h-9.968V1426.3a1,1,0,0,1-1,1H514.821a1,1,0,0,1-1-1v-5.984a1,1,0,0,1,2,0v4.984h9.968v-16.952a1,1,0,0,1,1-1h11.968a1,1,0,0,1,1,1V1426.3A1,1,0,0,1,538.757,1427.3Z" fill="#1a1818"/>
      </g>
      <g id="Group_1174" data-name="Group 1174" transform="translate(440.769 -674.226)">
        <path id="Path_1044" data-name="Path 1044" d="M559.047,1427.3H548.2a1,1,0,0,1-1-1v-18.181a1,1,0,0,1,1-1h4.737a1,1,0,0,1,0,2H549.2V1425.3h8.848V1413.43a1,1,0,0,1,2,0V1426.3A1,1,0,0,1,559.047,1427.3Z" fill="#1a1818"/>
      </g>
      <g id="Group_1175" data-name="Group 1175" transform="translate(440.769 -674.226)">
        <path id="Path_1045" data-name="Path 1045" d="M563.793,1410.89a1,1,0,0,1-.707-1.707,3.817,3.817,0,0,0-5.4-5.4,1,1,0,0,1-1.414-1.414,5.817,5.817,0,0,1,8.226,8.227A1,1,0,0,1,563.793,1410.89Z" fill="#1a1818"/>
      </g>
      <g id="Group_1176" data-name="Group 1176" transform="translate(440.769 -674.226)">
        <path id="Path_1046" data-name="Path 1046" d="M567.588,1413.357a1,1,0,0,1-.707-1.707,8.245,8.245,0,0,0-11.661-11.66,1,1,0,0,1-1.414-1.414,10.245,10.245,0,0,1,14.489,14.488A.993.993,0,0,1,567.588,1413.357Z" fill="#1a1818"/>
      </g>
    </g>
  </g>
</svg>
