<svg xmlns="http://www.w3.org/2000/svg" width="37.721" height="45.818" viewBox="0 0 37.721 45.818">
  <g id="Group_1330" data-name="Group 1330" transform="translate(-488.834 -239)">
    <g id="Group_1177" data-name="Group 1177" transform="translate(-180.164 -464)">
      <g id="Group_1154" data-name="Group 1154" transform="translate(672.989 706.99)">
        <path id="Path_1025" data-name="Path 1025" d="M265.576,1423.556H233.618a.886.886,0,0,1,0-1.773h31.071V1383.5H241.665l-7.16,7.658v23.631a.886.886,0,0,1-1.773,0v-23.98a.886.886,0,0,1,.239-.605l7.661-8.2a.887.887,0,0,1,.647-.281h24.3a.886.886,0,0,1,.886.886v40.055A.886.886,0,0,1,265.576,1423.556Z" transform="translate(-232.732 -1381.728)" fill="#1a1818"/>
      </g>
      <g id="Group_1155" data-name="Group 1155" transform="translate(668.999 703)">
        <path id="Path_1026" data-name="Path 1026" d="M229.116,1411.173a.886.886,0,0,1-.886-.886v-23.979a.883.883,0,0,1,.239-.605l7.661-8.2a.886.886,0,0,1,.647-.281h24.3a.886.886,0,0,1,.886.886v3.99a.886.886,0,1,1-1.773,0V1379H237.162L230,1386.657v23.63A.886.886,0,0,1,229.116,1411.173Z" transform="translate(-228.23 -1377.226)" fill="#1a1818"/>
      </g>
      <g id="Group_1158" data-name="Group 1158" transform="translate(682.269 717.046)">
        <path id="Path_1029" data-name="Path 1029" d="M250.787,1408.243a7.585,7.585,0,1,1,7.585-7.584A7.593,7.593,0,0,1,250.787,1408.243Zm0-13.4a5.812,5.812,0,1,0,5.813,5.813A5.819,5.819,0,0,0,250.787,1394.846Z" transform="translate(-243.202 -1393.073)" fill="#1a1818"/>
      </g>
      <g id="Group_1159" data-name="Group 1159" transform="translate(682.269 737.364)">
        <path id="Path_1030" data-name="Path 1030" d="M258.395,1417.769H244.088a.886.886,0,0,1,0-1.773h14.307a.886.886,0,1,1,0,1.773Z" transform="translate(-243.202 -1415.996)" fill="#1a1818"/>
      </g>
    </g>
  </g>
</svg>
