<svg xmlns="http://www.w3.org/2000/svg" width="52.445" height="35.489" viewBox="0 0 52.445 35.489">
  <g id="Group_1331" data-name="Group 1331" transform="translate(-481.427 -429.769)">
    <g id="Group_1181" data-name="Group 1181" transform="translate(-615.085 -280.704)">
      <g id="Group_1163" data-name="Group 1163" transform="translate(1104.803 729.858)">
        <path id="Path_1034" data-name="Path 1034" d="M680.024,1413.416H665.572a.931.931,0,0,1-.932-.932,8.138,8.138,0,0,1,3.7-6.832.932.932,0,0,1,1.02,1.56,6.28,6.28,0,0,0-2.786,4.34h12.451a6.294,6.294,0,0,0-2.706-4.288.932.932,0,0,1,1.043-1.544,8.153,8.153,0,0,1,3.6,6.764A.931.931,0,0,1,680.024,1413.416Z" transform="translate(-664.64 -1405.5)" fill="#1a1818"/>
      </g>
      <g id="Group_1164" data-name="Group 1164" transform="translate(1108.08 718.661)">
        <path id="Path_1035" data-name="Path 1035" d="M673.049,1403.271a4.893,4.893,0,1,1,4.893-4.894A4.9,4.9,0,0,1,673.049,1403.271Zm0-7.922a3.029,3.029,0,1,0,3.029,3.029A3.032,3.032,0,0,0,673.049,1395.349Z" transform="translate(-668.156 -1393.485)" fill="#1a1818"/>
      </g>
      <g id="Group_1168" data-name="Group 1168" transform="translate(1096.511 710.473)">
        <path id="Path_1038" data-name="Path 1038" d="M707.257,1420.188H656.675a.931.931,0,0,1-.932-.932V1397.78a.932.932,0,0,1,1.864,0v20.545h48.718v-31.761h-49.65a.932.932,0,1,1,0-1.864h50.582a.932.932,0,0,1,.932.932v33.625A.932.932,0,0,1,707.257,1420.188Z" transform="translate(-655.743 -1384.699)" fill="#1a1818"/>
      </g>
      <g id="Group_1169" data-name="Group 1169" transform="translate(1124.782 722.622)">
        <path id="Path_1039" data-name="Path 1039" d="M700.87,1399.6H687.01a.932.932,0,0,1,0-1.864h13.86a.932.932,0,1,1,0,1.864Z" transform="translate(-686.078 -1397.735)" fill="#1a1818"/>
      </g>
      <g id="Group_1170" data-name="Group 1170" transform="translate(1124.782 727.285)">
        <path id="Path_1040" data-name="Path 1040" d="M700.87,1404.6H687.01a.932.932,0,0,1,0-1.864h13.86a.932.932,0,1,1,0,1.864Z" transform="translate(-686.078 -1402.739)" fill="#1a1818"/>
      </g>
    </g>
  </g>
</svg>
