<svg xmlns="http://www.w3.org/2000/svg" width="47.655" height="40.983" viewBox="0 0 47.655 40.983">
  <g id="Group_1322" data-name="Group 1322" transform="translate(-479.683 -240.641)">
    <g id="Group_1123" data-name="Group 1123" transform="translate(-151.716 -442.456)">
      <g id="Group_1095" data-name="Group 1095" transform="translate(631.398 683.096)">
        <path id="Path_980" data-name="Path 980" d="M278.061,995.67a1.162,1.162,0,0,1-1.162-1.162v-37.5H269.68v37.5a1.162,1.162,0,0,1-1.162,1.162h-9.108a1.162,1.162,0,0,1-1.162-1.162V966.071h-6.459v28.437a1.161,1.161,0,0,1-1.162,1.162h-8.774a1.161,1.161,0,0,1-1.162-1.162v-19.8h-6.795v19.8a1.162,1.162,0,0,1-2.325,0V973.546a1.162,1.162,0,0,1,1.162-1.162h9.12a1.162,1.162,0,0,1,1.162,1.162v19.8h6.449V964.909a1.163,1.163,0,0,1,1.162-1.162h8.784a1.163,1.163,0,0,1,1.162,1.162v28.437h6.783v-37.5a1.161,1.161,0,0,1,1.162-1.162h9.544a1.162,1.162,0,0,1,1.163,1.162v38.658A1.162,1.162,0,0,1,278.061,995.67Z" transform="translate(-231.569 -954.687)" fill="#1a1818"/>
      </g>
    </g>
  </g>
</svg>
