<svg xmlns="http://www.w3.org/2000/svg" width="40.795" height="50.803" viewBox="0 0 40.795 50.803">
  <g id="Group_1323" data-name="Group 1323" transform="translate(-483.381 -419.024)">
    <g id="Group_1125" data-name="Group 1125" transform="translate(-567 -261)">
      <g id="Group_1096" data-name="Group 1096" transform="translate(1080.214 680.024)">
        <path id="Path_981" data-name="Path 981" d="M549.82,952.524" transform="translate(-549.82 -952.524)" fill="none" stroke="#1a1818" stroke-linecap="round" stroke-linejoin="round" stroke-width="2"/>
      </g>
      <g id="Group_1097" data-name="Group 1097" transform="translate(1091.176 700.366)">
        <path id="Path_982" data-name="Path 982" d="M558.364,968.379" transform="translate(-558.364 -968.379)" fill="none" stroke="#1a1818" stroke-linecap="round" stroke-linejoin="round" stroke-width="2"/>
      </g>
      <g id="Group_1098" data-name="Group 1098" transform="translate(1065.75 711.257)">
        <path id="Path_983" data-name="Path 983" d="M539.829,989.523a1.282,1.282,0,0,1-1.283-1.283V978.151a1.283,1.283,0,1,1,2.566,0V988.24A1.282,1.282,0,0,1,539.829,989.523Z" transform="translate(-538.546 -976.868)" fill="#1a1818"/>
      </g>
      <g id="Group_1099" data-name="Group 1099" transform="translate(1072.696 705.694)">
        <path id="Path_984" data-name="Path 984" d="M545.243,990.75a1.282,1.282,0,0,1-1.283-1.283V973.815a1.283,1.283,0,1,1,2.566,0v15.652A1.282,1.282,0,0,1,545.243,990.75Z" transform="translate(-543.96 -972.532)" fill="#1a1818"/>
      </g>
      <g id="Group_1100" data-name="Group 1100" transform="translate(1079.843 700.13)">
        <path id="Path_985" data-name="Path 985" d="M550.814,991.978a1.283,1.283,0,0,1-1.283-1.283V969.478a1.283,1.283,0,0,1,2.566,0v21.217A1.282,1.282,0,0,1,550.814,991.978Z" transform="translate(-549.531 -968.195)" fill="#1a1818"/>
      </g>
      <g id="Group_1101" data-name="Group 1101" transform="translate(1086.604 704.448)">
        <path id="Path_986" data-name="Path 986" d="M554.8,971.561" transform="translate(-554.8 -971.561)" fill="none" stroke="#1a1818" stroke-linecap="round" stroke-linejoin="round" stroke-width="2"/>
      </g>
      <g id="Group_1116" data-name="Group 1116" transform="translate(1059.052 700.366)">
        <path id="Path_1000" data-name="Path 1000" d="M533.326,968.379" transform="translate(-533.326 -968.379)" fill="none" stroke="#1a1818" stroke-linecap="round" stroke-linejoin="round" stroke-width="2"/>
      </g>
      <g id="Group_1117" data-name="Group 1117" transform="translate(1057.77 691.988)">
        <path id="Path_1001" data-name="Path 1001" d="M562.588,1000.689H533.609a1.282,1.282,0,0,1-1.283-1.283V979.214a1.283,1.283,0,0,1,2.566,0v18.909H561.3V964.415H534.892v5.812a1.283,1.283,0,1,1-2.566,0v-7.095a1.282,1.282,0,0,1,1.283-1.283h28.979a1.282,1.282,0,0,1,1.283,1.283v36.274A1.282,1.282,0,0,1,562.588,1000.689Z" transform="translate(-532.326 -961.849)" fill="#1a1818"/>
      </g>
      <g id="Group_1118" data-name="Group 1118" transform="translate(1050.381 684.599)">
        <path id="Path_1002" data-name="Path 1002" d="M535.239,994.93H527.85a1.283,1.283,0,0,1-1.283-1.283V957.373a1.283,1.283,0,0,1,1.283-1.283h28.979a1.282,1.282,0,0,1,1.283,1.283v7.389a1.283,1.283,0,1,1-2.566,0v-6.106H529.133v33.708h6.106a1.283,1.283,0,0,1,0,2.566Z" transform="translate(-526.567 -956.09)" fill="#1a1818"/>
      </g>
      <g id="Group_1119" data-name="Group 1119" transform="translate(1061.557 717.56)">
        <path id="Path_1003" data-name="Path 1003" d="M535.278,981.781" transform="translate(-535.278 -981.781)" fill="none" stroke="#1a1818" stroke-linecap="round" stroke-linejoin="round" stroke-width="2"/>
      </g>
      <g id="Group_1120" data-name="Group 1120" transform="translate(1076.046 693.27)">
        <path id="Path_1004" data-name="Path 1004" d="M546.571,962.848" transform="translate(-546.571 -962.848)" fill="none" stroke="#1a1818" stroke-linecap="round" stroke-linejoin="round" stroke-width="2"/>
      </g>
    </g>
  </g>
</svg>
