<svg xmlns="http://www.w3.org/2000/svg" width="37.169" height="43.379" viewBox="0 0 37.169 43.379">
  <g id="Group_1327" data-name="Group 1327" transform="translate(-488.835 -240.641)">
    <g id="Group_1148" data-name="Group 1148" transform="translate(-0.165 -396.359)">
      <g id="Group_1134" data-name="Group 1134" transform="translate(499.81 647.81)">
        <path id="Path_1011" data-name="Path 1011" d="M125.895,1210.383h0l-24.117-.068a1.121,1.121,0,0,1-1.117-1.121v-30.259a1.123,1.123,0,0,1,.329-.793,1.267,1.267,0,0,1,.795-.327l24.117.068a1.121,1.121,0,0,1,1.117,1.121v20.172a1.121,1.121,0,0,1-2.241,0v-19.055l-21.876-.062v28.017l23,.065a1.121,1.121,0,0,1,0,2.241Z" transform="translate(-100.657 -1177.815)" fill="#1a1818"/>
      </g>
      <g id="Group_1135" data-name="Group 1135" transform="translate(494.266 642.266)">
        <path id="Path_1012" data-name="Path 1012" d="M102.375,1205.438h-.013l-5.544-.07a1.121,1.121,0,0,1-1.107-1.121v-30.259a1.121,1.121,0,0,1,1.121-1.12h0l24.117.069a1.12,1.12,0,0,1,1.117,1.121v5.526a1.121,1.121,0,0,1-2.241,0v-4.409l-21.876-.063v28.028l4.437.055a1.121,1.121,0,0,1-.013,2.242Z" transform="translate(-95.71 -1172.868)" fill="#1a1818"/>
      </g>
      <g id="Group_1136" data-name="Group 1136" transform="translate(489 637)">
        <path id="Path_1013" data-name="Path 1013" d="M97.4,1200.737h-.015l-5.266-.068a1.121,1.121,0,0,1-1.106-1.121V1169.29a1.121,1.121,0,0,1,1.121-1.121h0l24.117.068a1.122,1.122,0,0,1,1.117,1.121v5.252a1.121,1.121,0,1,1-2.241,0v-4.133l-21.876-.063v28.028l4.16.054a1.121,1.121,0,0,1-.015,2.241Z" transform="translate(-91.011 -1168.169)" fill="#1a1818"/>
      </g>
    </g>
  </g>
</svg>
