<svg xmlns="http://www.w3.org/2000/svg" width="46.305" height="45.059" viewBox="0 0 46.305 45.059">
  <g id="Group_1325" data-name="Group 1325" transform="translate(-844.354 -423)">
    <g id="Group_1324" data-name="Group 1324">
      <g id="Group_1153" data-name="Group 1153" transform="translate(-77 -214)">
        <g id="Group_1151" data-name="Group 1151" transform="translate(921.354 637)">
          <g id="Group_1133" data-name="Group 1133" transform="translate(23.794 16.836)">
            <path id="Path_1010" data-name="Path 1010" d="M559.976,1205.249a1.163,1.163,0,0,1-.823-.341l-11.8-11.805a1.157,1.157,0,0,1-.267-.412l-3.2-8.483a1.164,1.164,0,0,1,1.517-1.494l8.376,3.31a1.152,1.152,0,0,1,.4.26l11.807,11.8a1.164,1.164,0,0,1-1.646,1.646L552.692,1188.1l-5.705-2.254,2.185,5.788,11.627,11.628a1.164,1.164,0,0,1-.823,1.987Z" transform="translate(-543.804 -1182.631)" fill="#1a1818"/>
          </g>
          <g id="Group_1137" data-name="Group 1137" transform="translate(11.23 11.229)">
            <path id="Path_1014" data-name="Path 1014" d="M559.227,1211.645h0l-25.051-.071a1.164,1.164,0,0,1-1.161-1.164v-31.431a1.162,1.162,0,0,1,.342-.824,1.2,1.2,0,0,1,.825-.34l25.051.071a1.164,1.164,0,0,1,1.161,1.164v12.957a1.164,1.164,0,0,1-2.328,0v-11.8l-22.722-.064v29.1l23.89.068a1.164,1.164,0,0,1,0,2.328Z" transform="translate(-533.012 -1177.815)" fill="#1a1818"/>
          </g>
          <g id="Group_1138" data-name="Group 1138" transform="translate(5.47 5.47)">
            <path id="Path_1015" data-name="Path 1015" d="M534.988,1206.7h-.015l-5.759-.072a1.165,1.165,0,0,1-1.15-1.164v-31.431a1.164,1.164,0,0,1,1.164-1.164h0l25.053.072a1.165,1.165,0,0,1,1.161,1.164v5.74a1.164,1.164,0,0,1-2.328,0v-4.58l-22.725-.065v29.115l4.61.057a1.164,1.164,0,0,1-.014,2.328Z" transform="translate(-528.064 -1172.868)" fill="#1a1818"/>
          </g>
          <g id="Group_1139" data-name="Group 1139">
            <path id="Path_1016" data-name="Path 1016" d="M530,1202h-.014l-5.47-.071a1.165,1.165,0,0,1-1.15-1.164v-31.431a1.165,1.165,0,0,1,1.164-1.164h0l25.053.071a1.166,1.166,0,0,1,1.161,1.164v5.455a1.164,1.164,0,0,1-2.328,0v-4.293l-22.725-.065v29.115l4.321.056A1.164,1.164,0,0,1,530,1202Z" transform="translate(-523.365 -1168.169)" fill="#1a1818"/>
          </g>
        </g>
      </g>
    </g>
  </g>
</svg>
