<svg xmlns="http://www.w3.org/2000/svg" width="27.772" height="45.159" viewBox="0 0 27.772 45.159">
  <g id="Group_1328" data-name="Group 1328" transform="translate(-492.759 -424.668)">
    <g id="Group_1152" data-name="Group 1152" transform="translate(-291 -218)">
      <g id="Group_1150" data-name="Group 1150" transform="translate(783.759 642.668)">
        <g id="Group_1143" data-name="Group 1143" transform="translate(0 5.437)">
          <path id="Path_1020" data-name="Path 1020" d="M412.175,1217.537H387.137a1.367,1.367,0,1,1,0-2.734h23.671v-34.255H388.5v24.066a1.367,1.367,0,1,1-2.734,0v-25.433a1.366,1.366,0,0,1,1.367-1.367h25.038a1.366,1.366,0,0,1,1.367,1.367v36.989A1.366,1.366,0,0,1,412.175,1217.537Z" transform="translate(-385.77 -1177.815)" fill="#1a1818"/>
        </g>
        <g id="Group_1144" data-name="Group 1144" transform="translate(12.635 12.106)">
          <path id="Path_1021" data-name="Path 1021" d="M396.381,1209.078a1.365,1.365,0,0,1-1.367-1.367v-23.651a1.367,1.367,0,0,1,2.734,0v23.651A1.366,1.366,0,0,1,396.381,1209.078Z" transform="translate(-395.014 -1182.694)" fill="#1a1818"/>
        </g>
        <g id="Group_1145" data-name="Group 1145" transform="translate(18.619 12.106)">
          <path id="Path_1022" data-name="Path 1022" d="M400.759,1209.078a1.365,1.365,0,0,1-1.367-1.367v-23.651a1.367,1.367,0,0,1,2.734,0v23.651A1.366,1.366,0,0,1,400.759,1209.078Z" transform="translate(-399.392 -1182.694)" fill="#1a1818"/>
        </g>
        <g id="Group_1146" data-name="Group 1146" transform="translate(6.65 12.106)">
          <path id="Path_1023" data-name="Path 1023" d="M392,1209.078a1.366,1.366,0,0,1-1.367-1.367v-23.651a1.367,1.367,0,0,1,2.734,0v23.651A1.366,1.366,0,0,1,392,1209.078Z" transform="translate(-390.635 -1182.694)" fill="#1a1818"/>
        </g>
        <g id="Group_1147" data-name="Group 1147" transform="translate(0)">
          <path id="Path_1024" data-name="Path 1024" d="M412.175,1176.571H387.137a1.367,1.367,0,1,1,0-2.734h25.038a1.367,1.367,0,1,1,0,2.734Z" transform="translate(-385.77 -1173.837)" fill="#1a1818"/>
        </g>
      </g>
    </g>
  </g>
</svg>
