<svg xmlns="http://www.w3.org/2000/svg" width="20.996" height="17.608" viewBox="0 0 20.996 17.608">
  <g id="Group_1315" data-name="Group 1315" transform="translate(-94.652 -223.563)">
    <g id="Group_977" data-name="Group 977" transform="translate(2.376)">
      <g id="Group_922" data-name="Group 922" transform="translate(94.621 223.863)">
        <path id="Path_785" data-name="Path 785" d="M-10.249,483.815a.482.482,0,0,1-.187-.037.488.488,0,0,1-.3-.451,7.707,7.707,0,0,0-7.7-7.7,7.673,7.673,0,0,0-7.13,4.79.488.488,0,0,1-.637.268.489.489,0,0,1-.268-.637,8.647,8.647,0,0,1,8.035-5.4,8.689,8.689,0,0,1,8.6,7.567l.793-.793a.488.488,0,0,1,.691,0,.489.489,0,0,1,0,.691L-9.9,483.672A.487.487,0,0,1-10.249,483.815Z" transform="translate(26.507 -474.651)" fill="#919191" stroke="#919191" stroke-width="0.6"/>
      </g>
      <g id="Group_923" data-name="Group 923" transform="translate(95.109 229.445)">
        <path id="Path_786" data-name="Path 786" d="M-25.507,486.076" transform="translate(25.507 -486.076)" fill="#919191" stroke="#919191" stroke-linecap="round" stroke-linejoin="round" stroke-width="0.6"/>
      </g>
      <g id="Group_924" data-name="Group 924" transform="translate(108.621 230.817)">
        <path id="Path_787" data-name="Path 787" d="M4.4,491.094a.483.483,0,0,1-.279-.087l-1.769-1.232a.488.488,0,1,1,.558-.8L4.684,490.2a.488.488,0,0,1-.279.889Z" transform="translate(-2.147 -488.884)" fill="#919191" stroke="#919191" stroke-width="0.6"/>
      </g>
      <g id="Group_925" data-name="Group 925" transform="translate(92.624 231.707)">
        <path id="Path_788" data-name="Path 788" d="M-20.362,499.869a8.689,8.689,0,0,1-8.6-7.566l-.793.793a.489.489,0,0,1-.691,0,.489.489,0,0,1,0-.691l1.557-1.557a.485.485,0,0,1,.533-.106.489.489,0,0,1,.3.451,7.707,7.707,0,0,0,7.7,7.7,7.659,7.659,0,0,0,7.162-4.87.488.488,0,0,1,.634-.275.488.488,0,0,1,.275.634A8.632,8.632,0,0,1-20.362,499.869Z" transform="translate(30.595 -490.704)" fill="#919191" stroke="#919191" stroke-width="0.6"/>
      </g>
      <g id="Group_926" data-name="Group 926" transform="translate(110.473 235.204)">
        <path id="Path_789" data-name="Path 789" d="M5.936,497.861" transform="translate(-5.936 -497.861)" fill="#919191" stroke="#919191" stroke-linecap="round" stroke-linejoin="round" stroke-width="0.6"/>
      </g>
      <g id="Group_927" data-name="Group 927" transform="translate(94.181 231.708)">
        <path id="Path_790" data-name="Path 790" d="M-25.185,492.986a.487.487,0,0,1-.293-.1l-1.736-1.3a.489.489,0,0,1-.1-.685.489.489,0,0,1,.684-.1l1.736,1.3a.489.489,0,0,1,.1.685A.488.488,0,0,1-25.185,492.986Z" transform="translate(27.409 -490.705)" fill="#919191" stroke="#919191" stroke-width="0.6"/>
      </g>
    </g>
  </g>
</svg>
