<svg xmlns="http://www.w3.org/2000/svg" width="15.709" height="20.351" viewBox="0 0 15.709 20.351">
  <g id="Group_1325" data-name="Group 1325" transform="translate(-94.85 -172.232)">
    <g id="Group_916" data-name="Group 916" transform="translate(95 172.382)">
      <path id="Path_780" data-name="Path 780" d="M152.754,356.06a.419.419,0,0,1-.418-.418V338.954h-11.6v16.27h3.618a.418.418,0,1,1,0,.836h-4.037a.418.418,0,0,1-.418-.418V338.493a.417.417,0,0,1,.17-.336l2.795-2.066a.415.415,0,0,1,.248-.082h11.778a.419.419,0,0,1,.418.421l-.123,16.5a.417.417,0,0,1-.083.245l-2.014,2.713A.417.417,0,0,1,152.754,356.06Zm-11.224-17.942h11.224a.418.418,0,0,1,.418.418v15.842l1.179-1.588.119-15.944H143.252Z" transform="translate(-139.901 -336.009)" fill="#919191" stroke="#919191" stroke-width="0.3"/>
    </g>
    <g id="Group_917" data-name="Group 917" transform="translate(97 177.896)">
      <path id="Path_781" data-name="Path 781" d="M153.674,350.033h-8.043a.419.419,0,1,1,0-.836h8.043a.419.419,0,1,1,0,.836Z" transform="translate(-145.181 -349.197)" fill="#919191" stroke="#919191" stroke-width="0.3"/>
    </g>
    <g id="Group_918" data-name="Group 918" transform="translate(97 180.844)">
      <path id="Path_782" data-name="Path 782" d="M153.674,357.079h-8.043a.419.419,0,1,1,0-.836h8.043a.419.419,0,1,1,0,.836Z" transform="translate(-145.181 -356.243)" fill="#919191" stroke="#919191" stroke-width="0.3"/>
    </g>
    <g id="Group_919" data-name="Group 919" transform="translate(97 183.789)">
      <path id="Path_783" data-name="Path 783" d="M153.674,364.124h-8.043a.419.419,0,1,1,0-.836h8.043a.419.419,0,1,1,0,.836Z" transform="translate(-145.181 -363.288)" fill="#919191" stroke="#919191" stroke-width="0.3"/>
    </g>
  </g>
</svg>
