<svg xmlns="http://www.w3.org/2000/svg" width="21.499" height="21.499" viewBox="0 0 21.499 21.499">
  <g id="Group_1324" data-name="Group 1324" transform="translate(-94.3 -702.3)">
    <g id="Group_985" data-name="Group 985" transform="translate(5.03 -1545.446)">
      <circle id="Ellipse_119" data-name="Ellipse 119" cx="3.783" cy="3.783" r="3.783" transform="translate(96.229 2254.705)" fill="none" stroke="#919191" stroke-linecap="round" stroke-linejoin="round" stroke-width="1.4"/>
      <path id="Path_859" data-name="Path 859" d="M102.821,2250.2v-1.759h-5.6v1.759a8.709,8.709,0,0,0-1.078.449l-1.245-1.245-3.963,3.962,1.245,1.246a8.63,8.63,0,0,0-.449,1.078H89.97v5.6h1.759a8.673,8.673,0,0,0,.449,1.078l-1.245,1.245,3.963,3.962,1.245-1.245a8.709,8.709,0,0,0,1.078.449v1.759h5.6v-1.759a8.745,8.745,0,0,0,1.078-.449l1.245,1.245,3.962-3.962-1.245-1.245a8.764,8.764,0,0,0,.449-1.078h1.759v-5.6h-1.759" fill="none" stroke="#919191" stroke-linecap="round" stroke-linejoin="round" stroke-width="1.4"/>
    </g>
  </g>
</svg>
