<svg xmlns="http://www.w3.org/2000/svg" width="47" height="47" viewBox="0 0 47 47">
  <g id="Group_1314" data-name="Group 1314" transform="translate(6054 4648)">
    <rect id="Rectangle_2278" data-name="Rectangle 2278" width="47" height="47" transform="translate(-6054 -4648)" fill="rgba(255,255,255,0)"/>
    <g id="Group_910" data-name="Group 910" transform="translate(-7223.51 -5620.437)">
      <g id="Group_904" data-name="Group 904" transform="translate(1169.51 1000.522)">
        <path id="Path_775" data-name="Path 775" d="M447.977,125.289H425a.832.832,0,0,1-.833-.833,12.313,12.313,0,0,1,5.432-10.216.833.833,0,0,1,.932,1.381,10.651,10.651,0,0,0-4.666,8h21.245a10.653,10.653,0,0,0-4.666-8,.833.833,0,1,1,.933-1.381,12.315,12.315,0,0,1,5.432,10.216A.832.832,0,0,1,447.977,125.289Z" transform="translate(-424.167 -114.096)" fill="#1a1818"/>
      </g>
      <g id="Group_905" data-name="Group 905" transform="translate(1174.701 982.609)">
        <path id="Path_776" data-name="Path 776" d="M437.528,106.856a7.13,7.13,0,1,1,7.13-7.13A7.139,7.139,0,0,1,437.528,106.856Zm0-12.594a5.464,5.464,0,1,0,5.464,5.464A5.471,5.471,0,0,0,437.528,94.262Z" transform="translate(-430.397 -92.596)" fill="#1a1818"/>
      </g>
      <g id="Group_906" data-name="Group 906" transform="translate(1192.487 980.158)">
        <path id="Path_777" data-name="Path 777" d="M474.935,106.365h-7.446a.833.833,0,1,1,0-1.666H474.1V91.32h-20.69V98.01a.833.833,0,1,1-1.666,0V90.487a.833.833,0,0,1,.833-.833h22.357a.833.833,0,0,1,.833.833v15.045A.833.833,0,0,1,474.935,106.365Z" transform="translate(-451.745 -89.654)" fill="#1a1818"/>
      </g>
      <g id="Group_907" data-name="Group 907" transform="translate(1192.454 987.547)">
        <path id="Path_778" data-name="Path 778" d="M452.539,111.163a.833.833,0,0,1-.589-1.422l10.974-10.974a.833.833,0,0,1,1.178,1.178l-10.974,10.974A.827.827,0,0,1,452.539,111.163Z" transform="translate(-451.706 -98.523)" fill="#1a1818"/>
      </g>
    </g>
  </g>
</svg>
