<svg xmlns="http://www.w3.org/2000/svg" width="17.646" height="17.646" viewBox="0 0 17.646 17.646">
  <g id="Group_1314" data-name="Group 1314" transform="translate(-94.5 -125.177)">
    <g id="Group_888" data-name="Group 888" transform="translate(95 125.677)">
      <path id="Path_760" data-name="Path 760" d="M-134.994,97.142h-5.351a.3.3,0,0,1-.3-.3V89.116H-145.4v7.729a.3.3,0,0,1-.3.3h-5.351a.3.3,0,0,1-.3-.3V94.169a.3.3,0,0,1,.3-.3.3.3,0,0,1,.3.3v2.378h4.756V88.819a.3.3,0,0,1,.3-.3h5.351a.3.3,0,0,1,.3.3v7.729h4.756V88.942l-7.729-7.729-7.816,7.816a.3.3,0,0,1-.42,0,.3.3,0,0,1,0-.42l8.026-8.026a.3.3,0,0,1,.42,0l8.026,8.026a.3.3,0,0,1,.087.21v8.026A.3.3,0,0,1-134.994,97.142Z" transform="translate(151.343 -80.496)" fill="#919191" stroke="#919191" stroke-width="1"/>
    </g>
  </g>
</svg>
